<svg xmlns="http://www.w3.org/2000/svg" xmlns:xlink="http://www.w3.org/1999/xlink" width="217" height="65" viewBox="0 0 217 65">
    <defs>
        <path id="l4l5cfx40a" d="M0 0L81.451 0 81.451 18.381 0 18.381z"/>
    </defs>
    <g fill="none" fill-rule="evenodd">
        <g>
            <g>
                <g transform="translate(-969 -872) translate(742.985 872.036) translate(226.924)">
                    <rect width="214" height="62" x="1" y="1" stroke="#FFF" stroke-width="2" rx="31"/>
                    <g>
                        <g transform="translate(48 20) translate(30.333 3.428)">
                            <mask id="8yp17duakb" fill="#fff">
                                <use xlink:href="#l4l5cfx40a"/>
                            </mask>
                            <path fill="#FFF" d="M63.31 13.981h1.793V.488H63.31V13.98zm16.148-8.633l-2.054 5.85h-.063l-2.132-5.85h-1.93l3.198 8.176-1.824 4.549h1.87l4.93-12.725h-1.995zm-10.168 7.1c-.586 0-1.405-.33-1.405-1.146 0-1.04 1.02-1.44 1.9-1.44.787 0 1.16.191 1.638.45-.139 1.251-1.096 2.136-2.133 2.136zm.217-7.395c-1.298 0-2.642.643-3.198 2.065l1.59.747c.342-.747.975-.99 1.639-.99.927 0 1.87.626 1.885 1.736v.14c-.325-.209-1.02-.52-1.87-.52-1.715 0-3.462 1.058-3.462 3.036 0 1.806 1.407 2.97 2.984 2.97 1.204 0 1.87-.608 2.286-1.32h.062v1.041h1.731V8.785c0-2.395-1.592-3.732-3.647-3.732zM58.428 6.99h-2.55V2.366h2.55c1.34 0 2.1 1.246 2.1 2.312 0 1.046-.76 2.313-2.1 2.313zM58.381.487h-4.296V13.98h1.792V8.869h2.504c1.987 0 3.941-1.616 3.941-4.191 0-2.574-1.954-4.191-3.94-4.191zM34.956 12.45c-1.238 0-2.275-1.164-2.275-2.764 0-1.618 1.037-2.8 2.275-2.8 1.223 0 2.183 1.182 2.183 2.8 0 1.6-.96 2.764-2.183 2.764zm2.06-6.346h-.063c-.403-.539-1.176-1.027-2.151-1.027-2.044 0-3.917 2.019-3.917 4.61 0 2.572 1.873 4.572 3.917 4.572.975 0 1.748-.486 2.15-1.043h.063v.66c0 1.758-.836 2.695-2.183 2.695-1.098 0-1.78-.886-2.058-1.634l-1.563.731c.448 1.217 1.64 2.713 3.621 2.713 2.106 0 3.886-1.392 3.886-4.783V5.356h-1.703v.748zm2.94 7.877h1.795V.488h-1.795V13.98zm4.442-4.451c-.046-1.775 1.224-2.678 2.137-2.678.712 0 1.315.4 1.517.973L44.398 9.53zM49.97 8c-.34-1.026-1.377-2.923-3.498-2.923-2.105 0-3.854 1.861-3.854 4.592 0 2.573 1.734 4.59 4.055 4.59 1.874 0 2.957-1.286 3.406-2.034l-1.393-1.044c-.464.765-1.098 1.27-2.013 1.27-.913 0-1.563-.47-1.98-1.392l5.463-2.538-.186-.522zM6.44 6.486v1.947h4.148c-.124 1.096-.449 1.896-.945 2.451-.604.68-1.547 1.427-3.204 1.427-2.554 0-4.55-2.313-4.55-5.182s1.996-5.183 4.55-5.183c1.378 0 2.384.609 3.127 1.393l1.223-1.374C9.752.853 8.374 0 6.439 0 2.941 0 0 3.2 0 7.13c0 3.93 2.941 7.13 6.44 7.13 1.887 0 3.312-.697 4.426-2 1.146-1.287 1.501-3.095 1.501-4.557 0-.45-.03-.868-.092-1.216H6.439zm10.644 5.963c-1.239 0-2.307-1.147-2.307-2.781 0-1.653 1.068-2.783 2.307-2.783 1.238 0 2.306 1.13 2.306 2.783 0 1.634-1.068 2.781-2.306 2.781zm0-7.373c-2.26 0-4.102 1.931-4.102 4.592 0 2.643 1.842 4.59 4.102 4.59 2.26 0 4.101-1.947 4.101-4.59 0-2.66-1.842-4.592-4.101-4.592zm8.947 7.373c-1.238 0-2.305-1.147-2.305-2.781 0-1.653 1.067-2.783 2.305-2.783 1.239 0 2.306 1.13 2.306 2.783 0 1.634-1.067 2.781-2.306 2.781zm0-7.373c-2.26 0-4.101 1.931-4.101 4.592 0 2.643 1.842 4.59 4.101 4.59 2.261 0 4.103-1.947 4.103-4.59 0-2.66-1.842-4.592-4.103-4.592z" mask="url(#8yp17duakb)"/>
                        </g>
                        <g fill="#FFF">
                            <path d="M.346 0C.129.28 0 .704 0 1.25v20.145c0 .46.094.83.252 1.105l9.665-11.305L.346 0z" transform="translate(48 20)"/>
                            <path d="M10.78 10.5l3.387-3.278L1.406.284C.874-.006.387-.064 0 .065L10.78 10.5zM10.703 12L0 23.845c.4.24.942.211 1.541-.162l12.626-7.849L10.703 12zM14.787 7.5l-3.454 3.667L14.943 15l3.965-2.366c1.234-.736 1.234-1.94 0-2.675L14.787 7.5z" transform="translate(48 20)"/>
                        </g>
                    </g>
                </g>
            </g>
        </g>
    </g>
</svg>
