<svg xmlns="http://www.w3.org/2000/svg" xmlns:xlink="http://www.w3.org/1999/xlink" width="300" height="90" viewBox="0 0 300 90">
    <defs>
        <path id="0io5a9saga" d="M0 0h60.554v90H0V0zm63.67 0h60.555v90H63.671V0z"/>
        <path id="wm3lcrbfsc" d="M0 0h60.554v90H0V0zm63.67 0h60.555v90H63.671V0z"/>
    </defs>
    <g fill="none" fill-rule="evenodd">
        <g>
            <g>
                <g transform="translate(-627 -469) translate(627 469) translate(.07)">
                    <mask id="c4ee7ugc4b" fill="#fff">
                        <use xlink:href="#0io5a9saga"/>
                    </mask>
                    <use fill="#222" xlink:href="#0io5a9saga"/>
                    <path fill="#31373A" d="M-7.025 45.914H131.176V95.29400000000001H-7.025z" mask="url(#c4ee7ugc4b)" transform="matrix(1 0 0 -1 0 141.209)"/>
                </g>
                <g transform="translate(-627 -469) translate(627 469) translate(175.662)">
                    <mask id="8g8dm6sxgd" fill="#fff">
                        <use xlink:href="#wm3lcrbfsc"/>
                    </mask>
                    <use fill="#222" xlink:href="#wm3lcrbfsc"/>
                    <path fill="#31373A" d="M-11.647 45.914H126.55399999999999V95.29400000000001H-11.647z" mask="url(#8g8dm6sxgd)" transform="matrix(1 0 0 -1 0 141.209)"/>
                </g>
                <g>
                    <text fill="#17A58B" font-family="FuturaStd-Heavy, Futura Std" font-size="52" font-weight="600" letter-spacing=".5" transform="translate(-627 -469) translate(627 469) translate(3 17.408)">
                        <tspan x="5.484" y="17.854">1 </tspan> <tspan x="67.096" y="17.854">0</tspan>
                    </text>
                    <path fill="#7DDEC5" d="M-9.955 28.506H128.24599999999998V77.886H-9.955z" transform="translate(-627 -469) translate(627 469) translate(3 17.408) matrix(1 0 0 -1 0 106.392)"/>
                </g>
                <g>
                    <text fill="#17A58B" font-family="FuturaStd-Heavy, Futura Std" font-size="52" font-weight="600" letter-spacing=".5" transform="translate(-627 -469) translate(627 469) translate(183.662 17.408)">
                        <tspan x="2.484" y="17.854">0 </tspan> <tspan x="64.096" y="17.854">0</tspan>
                    </text>
                    <path fill="#7DDEC5" d="M-15.025 28.506H125.71199999999999V77.886H-15.025z" transform="translate(-627 -469) translate(627 469) translate(183.662 17.408) matrix(1 0 0 -1 0 106.392)"/>
                </g>
                <text fill="#222" font-family="FuturaStd-Heavy, Futura Std" font-size="44" font-weight="600" transform="translate(-627 -469) translate(627 469)">
                    <tspan x="137.609" y="26.208">:</tspan>
                </text>
            </g>
        </g>
    </g>
</svg>
