<?xml version="1.0" encoding="UTF-8"?>
<svg width="45px" height="46px" viewBox="0 0 45 46" version="1.1" xmlns="http://www.w3.org/2000/svg" xmlns:xlink="http://www.w3.org/1999/xlink">
    <!-- Generator: Sketch 52.5 (67469) - http://www.bohemiancoding.com/sketch -->
    <title>event_icon</title>
    <desc>Created with Sketch.</desc>
    <g id="keyscreens" stroke="none" stroke-width="1" fill="none" fill-rule="evenodd">
        <g id="02_종료_main_03" transform="translate(-285.000000, -187.000000)" fill="#FFFFFF">
            <path d="M326.466346,208.434527 L308.497596,208.434527 L308.497596,202.293159 L310.554327,202.293159 L326.466346,202.293159 L326.466346,208.434527 Z M308.497596,229.929316 L323.701923,229.929316 L323.701923,211.505211 L308.497596,211.505211 L308.497596,229.929316 Z M313.114183,190.980758 C314.236538,189.73099 316.182692,189.734061 317.302284,190.980758 C318.460577,192.276587 318.460577,194.389218 317.302284,195.685046 C316.110817,197.017723 312.464543,199.222475 310.554327,199.222475 C310.159014,199.222475 310.042909,199.124213 310.040144,199.121142 C309.398798,198.381107 311.250962,193.062682 313.114183,190.980758 Z M305.733173,208.434527 L287.764423,208.434527 L287.764423,202.293159 L303.676442,202.293159 L305.733173,202.293159 L305.733173,208.434527 Z M290.528846,229.929316 L305.733173,229.929316 L305.733173,211.505211 L290.528846,211.505211 L290.528846,229.929316 Z M296.928486,190.980758 C297.489663,190.354339 298.233293,190.010422 299.023918,190.010422 C299.811779,190.010422 300.555409,190.354339 301.116587,190.980758 C302.979808,193.062682 304.831971,198.381107 304.187861,199.121142 C304.187861,199.121142 304.071755,199.222475 303.676442,199.222475 C301.766226,199.222475 298.119952,197.017723 296.928486,195.685046 C295.770192,194.389218 295.770192,192.276587 296.928486,190.980758 Z M317.719712,199.222475 C318.347236,198.746518 318.886298,198.273633 319.26226,197.849879 C321.490385,195.359554 321.490385,191.306251 319.26226,188.815926 C317.097716,186.396227 313.321514,186.393156 311.154207,188.815926 C309.957212,190.151674 306.775361,195.589855 307.214904,199.222475 L307.015865,199.222475 C307.452644,195.589855 304.273558,190.151674 303.076563,188.815926 C300.909255,186.393156 297.133053,186.396227 294.96851,188.815926 C292.740385,191.306251 292.740385,195.359554 294.965745,197.849879 C295.344471,198.273633 295.883534,198.746518 296.511058,199.222475 L287.764423,199.222475 C286.241226,199.222475 285,200.601212 285,202.293159 L285,209.969869 C285,210.817378 285.619231,211.505211 286.382212,211.505211 L287.764423,211.505211 L287.764423,229.929316 C287.764423,231.621167 289.005649,233 290.528846,233 L323.701923,233 C325.22512,233 326.466346,231.621167 326.466346,229.929316 L326.466346,211.505211 L327.848558,211.505211 C328.611538,211.505211 329.230769,210.817378 329.230769,209.969869 L329.230769,202.293159 C329.230769,200.601212 327.989543,199.222475 326.466346,199.222475 L317.719712,199.222475 Z" id="event_icon"></path>
        </g>
    </g>
</svg>