<svg xmlns="http://www.w3.org/2000/svg" xmlns:xlink="http://www.w3.org/1999/xlink" width="48" height="34" viewBox="0 0 48 34">
    <defs>
        <path id="luih8z8pda" d="M0 0.496L21.146 0.496 21.146 25 0 25z"/>
        <path id="s0zm3od2nc" d="M0 0.496L21.146 0.496 21.146 25 0 25z"/>
    </defs>
    <g fill="none" fill-rule="evenodd">
        <g>
            <g>
                <g>
                    <g transform="translate(-275 -190) translate(275 190) translate(0 8.237)">
                        <mask id="grscv4ig0b" fill="#fff">
                            <use xlink:href="#luih8z8pda"/>
                        </mask>
                        <path fill="#FFF" d="M10.573 12.586c-5.486 0-8.445-1.636-8.445-2.305V7.698c2.032 1.098 5.247 1.665 8.445 1.665 3.198 0 6.413-.567 8.444-1.665v2.583c0 .67-2.96 2.305-8.444 2.305m0 5.212c-5.486 0-8.445-1.636-8.445-2.305V13.05c2.032 1.1 5.247 1.665 8.445 1.665 3.198 0 6.413-.566 8.444-1.665v2.444c0 .67-2.96 2.305-8.444 2.305m0 5.074c-5.486 0-8.445-1.637-8.445-2.306v-2.305c2.032 1.098 5.247 1.665 8.445 1.665 3.198 0 6.413-.567 8.444-1.665v2.305c0 .67-2.96 2.306-8.444 2.306m0-20.248c5.485 0 8.444 1.637 8.444 2.306 0 .67-2.96 2.305-8.444 2.305-5.486 0-8.445-1.636-8.445-2.305 0-.669 2.959-2.306 8.445-2.306m0-2.128C5.319.496 0 2.02 0 4.93v15.636C0 23.477 5.319 25 10.573 25c5.254 0 10.573-1.523 10.573-4.434V4.93c0-2.91-5.32-4.434-10.573-4.434" mask="url(#grscv4ig0b)"/>
                    </g>
                    <g transform="translate(-275 -190) translate(275 190) translate(0 8.237)">
                        <mask id="n1jbz1e1vd" fill="#fff">
                            <use xlink:href="#s0zm3od2nc"/>
                        </mask>
                        <path fill="#FFF" d="M10.573 12.586c-5.486 0-8.445-1.636-8.445-2.305V7.698c2.032 1.098 5.247 1.665 8.445 1.665 3.198 0 6.413-.567 8.444-1.665v2.583c0 .67-2.96 2.305-8.444 2.305m0 5.212c-5.486 0-8.445-1.636-8.445-2.305V13.05c2.032 1.1 5.247 1.665 8.445 1.665 3.198 0 6.413-.566 8.444-1.665v2.444c0 .67-2.96 2.305-8.444 2.305m0 5.074c-5.486 0-8.445-1.637-8.445-2.306v-2.305c2.032 1.098 5.247 1.665 8.445 1.665 3.198 0 6.413-.567 8.444-1.665v2.305c0 .67-2.96 2.306-8.444 2.306m0-20.248c5.485 0 8.444 1.637 8.444 2.306 0 .67-2.96 2.305-8.444 2.305-5.486 0-8.445-1.636-8.445-2.305 0-.669 2.959-2.306 8.445-2.306m0-2.128C5.319.496 0 2.02 0 4.93v15.636C0 23.477 5.319 25 10.573 25c5.254 0 10.573-1.523 10.573-4.434V4.93c0-2.91-5.32-4.434-10.573-4.434" mask="url(#n1jbz1e1vd)"/>
                    </g>
                </g>
                <g fill="#FFF">
                    <path d="M1.133 10.579c-.07.182-.14.364-.202.55 1.155.514 1.861 1.14 1.861 1.802 0 .795-1.018 1.543-2.624 2.102-.014.207-.027.412-.032.622.563-.188 1.074-.401 1.513-.638l1.143-.618v3.883c0 .701-.793 1.366-2.083 1.898.053.184.105.37.164.553.278-.116.538-.236.776-.366l1.143-.617v3.744c0 .24-.101.476-.275.703.264.416.55.819.853 1.204v-12.47c0-.904-.836-1.72-2.237-2.352" transform="translate(-275 -190) translate(275 190) translate(17 .237)"/>
                    <path d="M1.243 16.903c-.333.129-.691.245-1.062.355.039.47.1.932.18 1.389.457-.206.753-.396.882-.522v-1.222zM22.03 13.54l-.006-.015c-.775-2.13-3.13-3.227-5.259-2.452-2.13.775-3.228 3.13-2.453 5.26l.005.014-2.996 1.09-.009-.025c-1.378-3.785.573-7.97 4.359-9.347 3.784-1.378 7.968.574 9.345 4.36l.01.024-2.996 1.091zm-6.97 10.416c-3.909.968-7.973-.585-9.356-4.384l2.997-1.09c.777 2.137 3.135 3.242 5.265 2.466 2.128-.774 3.225-3.136 2.447-5.273l2.996-1.09c.261 5.396-.939 8.526-4.349 9.371zM15.365.763c-5.963 0-11.112 3.431-13.618 8.42 1.901.852 3.174 2.087 3.174 3.747v14.167c2.729 2.572 6.397 4.16 10.444 4.16 8.421 0 15.247-6.826 15.247-15.247 0-8.42-6.826-15.247-15.247-15.247zM.506 12.636c-.05.215-.091.431-.131.65.28-.129.516-.253.668-.356-.128-.087-.318-.189-.537-.294" transform="translate(-275 -190) translate(275 190) translate(17 .237)"/>
                </g>
            </g>
        </g>
    </g>
</svg>
