<svg xmlns="http://www.w3.org/2000/svg" xmlns:xlink="http://www.w3.org/1999/xlink" width="230" height="70" viewBox="0 0 230 70">
    <defs>
        <path id="eem83qh0da" d="M0 0.022L21.937 0.022 21.937 20.25 0 20.25z"/>
        <path id="1lhln1qeuc" d="M0.103 0.698L10.449 0.698 10.449 15.385 0.103 15.385z"/>
        <path id="iumjs3489e" d="M0.406 0.698L10.751 0.698 10.751 15.385 0.406 15.385z"/>
        <path id="kjf5ma7gfg" d="M0.056 0.567L9.299 0.567 9.299 15.254 0.056 15.254z"/>
    </defs>
    <g fill="none" fill-rule="evenodd">
        <g>
            <g>
                <g>
                    <g>
                        <g transform="translate(-1041 -5703) translate(0 1540) translate(0 3904) translate(741 82) translate(300 177)">
                            <rect width="230" height="70" fill="#FFF" rx="35"/>
                            <g>
                                <g>
                                    <g transform="translate(55 21) translate(0 6.408)">
                                        <mask id="e31xl28fjb" fill="#fff">
                                            <use xlink:href="#eem83qh0da"/>
                                        </mask>
                                        <path fill="#1E1E1E" d="M18.323 7.768c-.03-3.368 2.79-5.005 2.92-5.082C19.645.383 17.17.067 16.299.044c-2.079-.215-4.095 1.23-5.154 1.23-1.081 0-2.712-1.208-4.468-1.172-2.261.034-4.38 1.328-5.54 3.338-2.395 4.099-.608 10.124 1.687 13.437 1.146 1.624 2.488 3.436 4.244 3.371 1.717-.07 2.36-1.083 4.432-1.083 2.053 0 2.655 1.083 4.446 1.041 1.843-.028 3.003-1.63 4.112-3.267 1.326-1.859 1.859-3.691 1.88-3.786-.043-.014-3.58-1.348-3.615-5.385" mask="url(#e31xl28fjb)"/>
                                    </g>
                                    <path fill="#1E1E1E" d="M14.941 4.272c.923-1.141 1.556-2.695 1.38-4.272-1.337.059-3.01.914-3.971 2.032-.852.984-1.614 2.598-1.416 4.114 1.501.11 3.043-.749 4.007-1.874" transform="translate(55 21)"/>
                                </g>
                                <g>
                                    <path fill="#1E1E1E" d="M8.224 9.295l-1.26-3.722c-.133-.381-.385-1.277-.753-2.687h-.043c-.148.606-.383 1.502-.707 2.687L4.222 9.295h4.002zm4.354 5.948h-2.541l-1.393-4.19H3.802l-1.326 4.19H0L4.797.98H7.76l4.818 14.262z" transform="translate(55 21) translate(31 5)"/>
                                    <g transform="translate(55 21) translate(31 5) translate(14.464 4.048)">
                                        <mask id="m3alozdu5d" fill="#fff">
                                            <use xlink:href="#1lhln1qeuc"/>
                                        </mask>
                                        <path fill="#1E1E1E" d="M8.017 6.01c0-1-.235-1.826-.706-2.476-.517-.678-1.21-1.016-2.078-1.016-.59 0-1.124.188-1.604.56-.478.376-.792.866-.939 1.473-.073.282-.112.514-.112.696V6.96c0 .749.241 1.381.72 1.894.48.516 1.102.773 1.868.773.898 0 1.6-.332 2.099-.993.501-.664.752-1.54.752-2.625m2.432-.085c0 1.75-.495 3.132-1.48 4.149-.885.902-1.983 1.353-3.294 1.353-1.416 0-2.433-.486-3.052-1.46h-.045v5.418H.193V4.297c0-1.1-.03-2.228-.09-3.386h2.1l.133 1.63h.044C3.177 1.313 4.385.698 6.006.698c1.268 0 2.325.481 3.171 1.439.848.96 1.272 2.224 1.272 3.788" mask="url(#m3alozdu5d)"/>
                                    </g>
                                    <g transform="translate(55 21) translate(31 5) translate(26.518 4.048)">
                                        <mask id="z80hgtrtkf" fill="#fff">
                                            <use xlink:href="#iumjs3489e"/>
                                        </mask>
                                        <path fill="#1E1E1E" d="M8.321 6.01c0-1-.237-1.826-.708-2.476-.517-.678-1.208-1.016-2.078-1.016-.59 0-1.124.188-1.604.56-.478.376-.79.866-.939 1.473-.073.282-.11.514-.11.696V6.96c0 .749.24 1.381.718 1.894.478.516 1.102.773 1.868.773.9 0 1.6-.332 2.1-.993.501-.664.753-1.54.753-2.625m2.43-.085c0 1.75-.492 3.132-1.48 4.149-.885.902-1.983 1.353-3.294 1.353-1.416 0-2.43-.486-3.052-1.46h-.043v5.418H.495V4.297c0-1.1-.03-2.228-.089-3.386h2.1l.133 1.63h.045C3.48 1.313 4.687.698 6.308.698c1.266 0 2.325.481 3.173 1.439.846.96 1.27 2.224 1.27 3.788" mask="url(#z80hgtrtkf)"/>
                                    </g>
                                    <g transform="translate(55 21) translate(31 5) translate(41.786 .202)">
                                        <mask id="x36boehdyh" fill="#fff">
                                            <use xlink:href="#kjf5ma7gfg"/>
                                        </mask>
                                        <path fill="#1E1E1E" d="M9.3 11.043c0 1.211-.44 2.198-1.323 2.961-.971.833-2.323 1.25-4.058 1.25-1.604 0-2.89-.297-3.863-.892L.61 12.46c1.048.608 2.198.91 3.45.91.9 0 1.599-.195 2.103-.582.499-.388.748-.91.748-1.559 0-.579-.204-1.067-.617-1.463-.412-.394-1.098-.762-2.057-1.103C1.628 7.731.326 6.367.326 4.574c0-1.173.456-2.137 1.371-2.883C2.607.942 3.824.567 5.344.567c1.357 0 2.483.225 3.38.676l-.596 1.864c-.84-.438-1.79-.656-2.85-.656-.84 0-1.497.198-1.968.592-.396.352-.596.782-.596 1.291 0 .563.227 1.029.684 1.396.398.34 1.12.704 2.168 1.1 1.28.495 2.224 1.072 2.83 1.735.602.664.903 1.49.903 2.478" mask="url(#x36boehdyh)"/>
                                    </g>
                                    <path fill="#1E1E1E" d="M58.978 6.674h-2.631v4.993c0 1.27.463 1.905 1.392 1.905.426 0 .782-.036 1.062-.106l.064 1.736c-.469.167-1.089.254-1.855.254-.943 0-1.68-.277-2.21-.827-.53-.55-.797-1.473-.797-2.773V6.674h-1.569V4.96h1.569V3.075l2.344-.676v2.56h2.63v1.715zM68.371 10.09c0-.947-.211-1.761-.64-2.44-.501-.822-1.216-1.232-2.144-1.232-.96 0-1.688.41-2.188 1.233-.428.678-.64 1.504-.64 2.483 0 .948.212 1.76.64 2.439.515.821 1.239 1.231 2.167 1.231.913 0 1.627-.418 2.144-1.253.442-.692.661-1.514.661-2.46m2.478-.074c0 1.58-.471 2.877-1.415 3.893-.987 1.044-2.301 1.566-3.935 1.566-1.578 0-2.833-.5-3.768-1.502-.937-1.002-1.404-2.265-1.404-3.789 0-1.592.48-2.9 1.448-3.913.964-1.016 2.264-1.525 3.9-1.525 1.576 0 2.845.5 3.803 1.504.915.973 1.371 2.228 1.371 3.766M78.608 6.969c-.237-.042-.489-.064-.753-.064-.84 0-1.488.304-1.946.911-.397.536-.597 1.214-.597 2.032v5.395h-2.385l.02-7.046c0-1.185-.03-2.265-.09-3.238h2.081l.088 1.968h.064c.252-.676.65-1.22 1.195-1.63.532-.366 1.106-.55 1.724-.55.222 0 .42.015.599.043V6.97zM87.007 9.022c.015-.677-.14-1.263-.463-1.757-.414-.634-1.048-.952-1.903-.952-.782 0-1.415.31-1.902.932-.396.494-.633 1.086-.705 1.777h4.973zm2.275.593c0 .408-.027.754-.085 1.036h-7.163c.028 1.016.373 1.791 1.039 2.33.602.478 1.384.717 2.343.717 1.06 0 2.026-.162 2.895-.487l.375 1.588c-1.017.424-2.217.634-3.602.634-1.667 0-2.973-.468-3.925-1.408-.95-.938-1.425-2.197-1.425-3.775 0-1.552.441-2.845 1.327-3.873.927-1.1 2.18-1.65 3.755-1.65 1.549 0 2.722.55 3.516 1.65.634.874.95 1.954.95 3.238z" transform="translate(55 21) translate(31 5)"/>
                                </g>
                            </g>
                        </g>
                    </g>
                </g>
            </g>
        </g>
    </g>
</svg>
