<svg xmlns="http://www.w3.org/2000/svg" xmlns:xlink="http://www.w3.org/1999/xlink" width="230" height="70" viewBox="0 0 230 70">
    <defs>
        <path id="kiya4zbhra" d="M0 0L89.763 0 89.763 18.921 0 18.921z"/>
    </defs>
    <g fill="none" fill-rule="evenodd">
        <g>
            <g>
                <g>
                    <g>
                        <g>
                            <g transform="translate(-1291 -5703) translate(0 1540) translate(0 3904) translate(741 82) translate(300 177) translate(250)">
                                <rect width="230" height="70" fill="#FFF" rx="35"/>
                                <g>
                                    <g transform="translate(55 24) translate(32 4)">
                                        <mask id="yuo68g4edb" fill="#fff">
                                            <use xlink:href="#kiya4zbhra"/>
                                        </mask>
                                        <path fill="#1E1E1E" d="M69.771 14.392h1.975V.502H69.77v13.89zm17.795-8.887l-2.264 6.023h-.069l-2.35-6.023h-2.128l3.525 8.417-2.01 4.682h2.061l5.433-13.099h-2.198zm-11.206 7.31c-.646 0-1.548-.34-1.548-1.18 0-1.072 1.124-1.484 2.095-1.484.867 0 1.277.198 1.804.464-.153 1.288-1.208 2.2-2.35 2.2zM76.6 5.2c-1.43 0-2.912.662-3.525 2.127l1.753.768c.376-.768 1.074-1.018 1.805-1.018 1.022 0 2.062.643 2.078 1.786v.144c-.358-.215-1.124-.536-2.06-.536-1.89 0-3.816 1.09-3.816 3.127 0 1.859 1.55 3.056 3.288 3.056 1.328 0 2.06-.625 2.52-1.359h.068v1.073h1.908V9.043c0-2.465-1.755-3.842-4.02-3.842zM64.39 7.196h-2.81v-4.76h2.81c1.476 0 2.315 1.282 2.315 2.38 0 1.076-.839 2.38-2.315 2.38zM64.338.501h-4.734v13.891h1.975V9.13h2.76c2.189 0 4.343-1.664 4.343-4.315 0-2.65-2.154-4.314-4.344-4.314zM38.523 12.816c-1.365 0-2.507-1.198-2.507-2.845 0-1.666 1.142-2.882 2.507-2.882 1.348 0 2.406 1.216 2.406 2.882 0 1.647-1.058 2.845-2.406 2.845zm2.27-6.533h-.07c-.443-.554-1.296-1.057-2.37-1.057-2.252 0-4.316 2.078-4.316 4.745 0 2.649 2.064 4.708 4.316 4.708 1.074 0 1.927-.501 2.37-1.075h.07v.68c0 1.81-.922 2.775-2.406 2.775-1.21 0-1.961-.913-2.268-1.683l-1.723.753c.493 1.252 1.807 2.792 3.99 2.792 2.322 0 4.282-1.432 4.282-4.923V5.513h-1.876v.77zm3.24 8.109h1.978V.502h-1.978v13.89zm4.895-4.582c-.05-1.827 1.35-2.757 2.355-2.757.785 0 1.45.412 1.672 1.002L48.928 9.81zm6.141-1.576c-.374-1.055-1.518-3.008-3.855-3.008-2.32 0-4.247 1.916-4.247 4.727 0 2.649 1.91 4.726 4.469 4.726 2.064 0 3.259-1.325 3.753-2.095l-1.535-1.074c-.512.788-1.21 1.306-2.218 1.306-1.006 0-1.723-.483-2.183-1.432l6.02-2.613-.204-.537zM7.096 6.678v2.004h4.572c-.136 1.128-.494 1.951-1.04 2.523-.667.7-1.706 1.47-3.532 1.47-2.814 0-5.014-2.382-5.014-5.335 0-2.954 2.2-5.336 5.014-5.336 1.519 0 2.627.627 3.446 1.434l1.348-1.415C10.747.878 9.229 0 7.096 0 3.241 0 0 3.294 0 7.34c0 4.044 3.241 7.339 7.096 7.339 2.08 0 3.651-.717 4.878-2.06 1.263-1.324 1.655-3.185 1.655-4.69 0-.464-.034-.894-.101-1.251H7.096zm11.73 6.138c-1.364 0-2.541-1.18-2.541-2.863 0-1.701 1.177-2.864 2.542-2.864 1.365 0 2.541 1.163 2.541 2.864 0 1.682-1.176 2.863-2.541 2.863zm0-7.59c-2.49 0-4.52 1.988-4.52 4.727 0 2.721 2.03 4.726 4.52 4.726 2.491 0 4.521-2.005 4.521-4.726 0-2.739-2.03-4.727-4.52-4.727zm9.862 7.59c-1.365 0-2.541-1.18-2.541-2.863 0-1.701 1.176-2.864 2.54-2.864 1.366 0 2.542 1.163 2.542 2.864 0 1.682-1.176 2.863-2.541 2.863zm0-7.59c-2.49 0-4.52 1.988-4.52 4.727 0 2.721 2.03 4.726 4.52 4.726 2.491 0 4.52-2.005 4.52-4.726 0-2.739-2.029-4.727-4.52-4.727z" mask="url(#yuo68g4edb)"/>
                                    </g>
                                    <g fill="#1E1E1E">
                                        <path d="M.383 0C.143.304 0 .762 0 1.353v21.825c0 .499.104.899.28 1.197L11 12.128.383 0z" transform="translate(55 24)"/>
                                        <path d="M11.958 11.375l3.756-3.551L1.56.307C.97-.006.43-.07 0 .071l11.958 11.304zM11.872 13L0 25.832c.444.261 1.045.229 1.71-.175l14.004-8.503L11.872 13zM20.974 10.789l-4.572-2.664-3.83 3.973 4.003 4.152 4.399-2.563c1.368-.798 1.368-2.102 0-2.898" transform="translate(55 24)"/>
                                    </g>
                                </g>
                            </g>
                        </g>
                    </g>
                </g>
            </g>
        </g>
    </g>
</svg>
