<svg xmlns="http://www.w3.org/2000/svg" width="195" height="35" viewBox="0 0 195 35">
    <defs>
        <linearGradient id="y9mkhwamka" x1="0%" x2="100%" y1="18.366%" y2="77.43%">
            <stop offset="0%" stop-color="#4CCAAE"/>
            <stop offset="100%" stop-color="#66D5B8"/>
        </linearGradient>
    </defs>
    <g fill="none" fill-rule="evenodd">
        <g>
            <g>
                <g>
                    <g fill="url(#y9mkhwamka)" transform="translate(-182 -46) translate(176 42) rotate(70 20.147 28.773)">
                        <path d="M15.007 0v6.54c-4.664 0-8.445 3.768-8.445 8.415 0 4.648 3.781 8.416 8.445 8.416v6.54C6.719 29.91 0 23.215 0 14.955S6.719 0 15.007 0zm-.014 41.828v-6.54c4.664 0 8.445-3.768 8.445-8.415 0-4.648-3.781-8.416-8.445-8.416v-6.54C23.281 11.917 30 18.613 30 26.873s-6.719 14.955-15.007 14.955z"/>
                    </g>
                    <path fill="#020203" d="M81.63 12.966l-1.612 2.387c-.654-.89-1.495-1.451-2.64-1.451-1.098 0-2.15.842-2.15 1.989 0 2.972 6.986 1.732 6.986 7.652 0 3.534-2.196 6.037-5.794 6.037-2.43 0-4.205-1.404-5.42-3.44l2.22-2.176c.467 1.357 1.705 2.574 3.177 2.574 1.401 0 2.266-1.193 2.266-2.55 0-1.826-1.682-2.34-3.06-2.879-2.267-.936-3.925-2.082-3.925-4.82 0-2.925 2.172-5.289 5.14-5.289 1.565 0 3.737.772 4.812 1.966zm31.95 7.3c0 5.196-3.342 9.314-8.715 9.314-5.373 0-8.714-4.118-8.714-9.313 0-5.242 3.458-9.267 8.714-9.267 5.257 0 8.714 4.025 8.714 9.267zm-3.552-.14c0-2.854-1.916-5.733-5.163-5.733-3.247 0-5.163 2.879-5.163 5.734 0 2.714 1.355 6.06 5.163 6.06 3.808 0 5.163-3.346 5.163-6.06zm23.936-5.663v14.65h-3.434v-14.65h-3.551v-2.995h10.536v2.995h-3.55zm25.096 15h-3.485l-5.408-17.995h3.598l3.458 12.028h.046l3.645-12.262h3.5l-5.354 18.23zm9.615-17.995h3.597l-5.607 17.995h-3.52l5.53-17.995zm31.35 8.799c0 5.195-3.341 9.313-8.715 9.313-5.373 0-8.714-4.118-8.714-9.313 0-5.242 3.458-9.267 8.714-9.267 5.257 0 8.715 4.025 8.715 9.267zm-3.551-.14c0-2.855-1.916-5.734-5.164-5.734-3.247 0-5.162 2.879-5.162 5.734 0 2.714 1.354 6.06 5.162 6.06 3.809 0 5.164-3.346 5.164-6.06z" transform="translate(-182 -46) translate(176 42)"/>
                </g>
            </g>
        </g>
    </g>
</svg>
