<?xml version="1.0" encoding="UTF-8"?>
<svg width="22px" height="21px" viewBox="0 0 22 21" version="1.1" xmlns="http://www.w3.org/2000/svg" xmlns:xlink="http://www.w3.org/1999/xlink">
    <!-- Generator: Sketch 52.5 (67469) - http://www.bohemiancoding.com/sketch -->
    <title>GNB_icon_02</title>
    <desc>Created with Sketch.</desc>
    <g id="symbols" stroke="none" stroke-width="1" fill="none" fill-rule="evenodd">
        <g id="gnb_back&amp;menu-/-default" transform="translate(-304.000000, -14.000000)" fill="#444444" stroke="#444444" stroke-width="0.3">
            <g id="GNB_icon_02" transform="translate(305.000000, 15.000000)">
                <path d="M15.2428598,9.40433932 L15.2428598,7.49475604 C15.2428598,7.26066605 15.082469,7.06109669 14.8642382,7.02380295 C14.4791198,6.95801295 13.452032,6.85349484 12.2380697,7.30427105 C10.9431225,7.78507351 9.82277798,8.73118719 8.90009086,10.121479 C8.89742896,9.66467837 8.93825981,9.20864278 9.02195179,8.76049625 C9.2955862,7.29442168 9.99056798,6.06296302 11.0873615,5.10078435 C11.0969714,5.09241716 11.1061753,5.08366747 11.1151084,5.07434404 C11.1466001,5.04340935 12.2899994,3.94950725 14.7889831,3.96925381 L14.7923218,3.96925381 C15.0409614,3.96925381 15.2426794,3.75548414 15.2428598,3.49198947 L15.2428598,1.62486368 L18.9133508,5.49514182 L15.2428598,9.40433932 Z M15.1101257,0.138851299 C14.9811814,0.00301599705 14.787765,-0.0374333748 14.6197945,0.0365325569 C14.4519143,0.110546301 14.3423251,0.284392538 14.3423251,0.477076897 L14.3423251,3.02270982 C11.9108364,3.12521982 10.6932196,4.19344661 10.5072024,4.37102222 C9.28047202,5.43791026 8.4428755,6.92468764 8.13865179,8.57503158 C7.98656249,9.37244839 7.95931184,10.1909505 8.05829847,10.9976908 L8.0586594,11.0004639 C8.05951663,11.0075879 8.06059943,11.0148076 8.06163712,11.0219317 L8.1572851,11.6046704 C8.18949861,11.8008929 8.33351197,11.9553751 8.51831108,11.9919038 C8.70333576,12.0284326 8.89007489,11.9391666 8.98680567,11.7682848 L9.27343377,11.2619504 C10.1540719,9.71014805 11.2515872,8.68146219 12.5357966,8.20458036 C13.1150534,7.98746381 13.7287795,7.89226913 14.3423251,7.923921 L14.3423251,10.5604933 C14.3423251,10.7535602 14.4522752,10.9278367 14.6206968,11.0014201 C14.7893441,11.0752426 14.9831214,11.0338848 15.1117048,10.8968542 L19.8689733,5.82982929 C20.0442978,5.64307368 20.0435759,5.34099433 19.8673942,5.15519497 L15.1101257,0.138851299 Z" id="Fill-1"></path>
                <path d="M18.1107612,14.362977 L18.1107612,16.4870073 C18.1100928,17.319433 17.513331,17.9938459 16.7770143,17.9948029 L2.22303025,17.9948029 C1.48662447,17.9938459 0.890085434,17.319433 0.889194279,16.4870073 L0.889194279,4.51299267 C0.890085434,3.680567 1.48662447,3.00615411 2.22303025,3.00519707 L5.29787084,3.00519707 C5.54342855,3.00519707 5.74246798,2.78019129 5.74246798,2.50259853 C5.74246798,2.22495541 5.54342855,2 5.29787084,2 L2.22303025,2 C0.995865511,2.00156149 0.00142584771,3.12573408 0,4.51299267 L0,16.4870073 C0.00142584771,17.8742659 0.995865511,18.9984385 2.22303025,19 L16.7770143,19 C18.004179,18.9984385 18.9985742,17.8742659 19,16.4870073 L19,14.362977 C19,14.0853338 18.8009606,13.8603281 18.5554029,13.8603281 C18.3099788,13.8603281 18.1107612,14.0853338 18.1107612,14.362977 Z" id="Fill-4"></path>
            </g>
        </g>
    </g>
</svg>