<?xml version="1.0" encoding="utf-8"?>
<!-- Generator: Adobe Illustrator 22.1.0, SVG Export Plug-In . SVG Version: 6.00 Build 0)  -->
<svg version="1.1" id="Capa_1" xmlns="http://www.w3.org/2000/svg" xmlns:xlink="http://www.w3.org/1999/xlink" x="0px" y="0px"
	 viewBox="0 0 18 18" style="enable-background:new 0 0 18 18;" xml:space="preserve">
<g>
	<g>
		<g>
			<path d="M17.6,3.4H0.4C0.2,3.4,0,3.5,0,3.8s0.2,0.4,0.4,0.4h17.2C17.8,4.1,18,4,18,3.8S17.8,3.4,17.6,3.4z"/>
		</g>
	</g>
	<g>
		<g>
			<path d="M17.6,8.6H0.4C0.2,8.6,0,8.8,0,9s0.2,0.4,0.4,0.4h17.2C17.8,9.4,18,9.2,18,9S17.8,8.6,17.6,8.6z"/>
		</g>
	</g>
	<g>
		<g>
			<path d="M17.6,13.9H0.4C0.2,13.9,0,14,0,14.2c0,0.2,0.2,0.4,0.4,0.4h17.2c0.2,0,0.4-0.2,0.4-0.4C18,14,17.8,13.9,17.6,13.9z"/>
		</g>
	</g>
</g>
</svg>
