<svg xmlns="http://www.w3.org/2000/svg" width="18" height="13" viewBox="0 0 18 13">
    <g fill="none" fill-rule="evenodd">
        <g fill="#FFF">
            <path d="M350.32 30.642c.376 0 .68.304.68.679 0 .375-.304.679-.68.679h-16.64c-.376 0-.68-.304-.68-.68 0-.374.304-.678.68-.678h16.64zm0-5.821c.376 0 .68.304.68.679 0 .375-.304.68-.68.68h-16.64c-.376 0-.68-.305-.68-.68 0-.375.304-.68.68-.68h16.64zm0-5.821c.376 0 .68.304.68.68 0 .374-.304.678-.68.678h-16.64c-.376 0-.68-.304-.68-.679 0-.375.304-.679.68-.679h16.64z" transform="translate(-333 -19)"/>
        </g>
    </g>
</svg>
