<?xml version="1.0" encoding="UTF-8"?>
<svg width="18px" height="14px" viewBox="0 0 18 14" version="1.1" xmlns="http://www.w3.org/2000/svg" xmlns:xlink="http://www.w3.org/1999/xlink">
    <!-- Generator: Sketch 52.5 (67469) - http://www.bohemiancoding.com/sketch -->
    <title>Combined Shape</title>
    <desc>Created with Sketch.</desc>
    <g id="symbols" stroke="none" stroke-width="1" fill="none" fill-rule="evenodd">
        <g id="GNB_MAIN-/-03" transform="translate(-339.000000, -62.000000)" fill="#444444">
            <path d="M339.7,62 L356.3,62 C356.686599,62 357,62.3134007 357,62.7 C357,63.0865993 356.686599,63.4 356.3,63.4 L339.7,63.4 C339.313401,63.4 339,63.0865993 339,62.7 C339,62.3134007 339.313401,62 339.7,62 Z M339.7,68 L356.3,68 C356.686599,68 357,68.3134007 357,68.7 C357,69.0865993 356.686599,69.4 356.3,69.4 L339.7,69.4 C339.313401,69.4 339,69.0865993 339,68.7 C339,68.3134007 339.313401,68 339.7,68 Z M339.7,74 L356.3,74 C356.686599,74 357,74.3134007 357,74.7 C357,75.0865993 356.686599,75.4 356.3,75.4 L339.7,75.4 C339.313401,75.4 339,75.0865993 339,74.7 C339,74.3134007 339.313401,74 339.7,74 Z" id="Combined-Shape"></path>
        </g>
    </g>
</svg>