<?xml version="1.0" encoding="UTF-8"?>
<svg width="337px" height="26px" viewBox="0 0 337 26" version="1.1" xmlns="http://www.w3.org/2000/svg" xmlns:xlink="http://www.w3.org/1999/xlink">
    <!-- Generator: Sketch 52.5 (67469) - http://www.bohemiancoding.com/sketch -->
    <title>Group 4</title>
    <desc>Created with Sketch.</desc>
    <g id="Symbols" stroke="none" stroke-width="1" fill="none" fill-rule="evenodd">
        <g id="PC_GNB" transform="translate(-552.000000, -24.000000)">
            <g id="Group-4" transform="translate(552.000000, 24.000000)">
                <g id="Group" transform="translate(176.000000, 8.000000)">
                    <g id="Group-15-Copy" transform="translate(33.000000, 0.000000)" fill="#222526">
                        <g id="Group-3-Copy-2">
                            <path d="M46.0504869,8.40768946 C46.0504869,13.1210911 43.1844736,16.857842 38.5748019,16.857842 C33.9651302,16.857842 31.0992348,13.1210911 31.0992348,8.40768946 C31.0992348,3.65182472 34.0653404,0 38.5748019,0 C43.0842633,0 46.0504869,3.65182472 46.0504869,8.40768946 Z M43.004213,8.28042512 C43.004213,5.69005246 41.360647,3.07857316 38.5748019,3.07857316 C35.7889568,3.07857316 34.1455087,5.69005246 34.1455087,8.28042512 C34.1455087,10.7431588 35.3079476,13.7792688 38.5748019,13.7792688 C41.8416562,13.7792688 43.004213,10.7431588 43.004213,8.28042512 Z M66.0125078,3.14226778 L66.0125078,16.4332112 L63.0663263,16.4332112 L63.0663263,3.14226778 L60.0199346,3.14226778 L60.0199346,0.424630781 L69.0588996,0.424630781 L69.0588996,3.14226778 L66.0125078,3.14226778 Z M88.6120639,0.21231539 L91.6138916,0.21231539 L94.7403336,11.3376419 L94.7804177,11.3376419 L97.7466413,0.424630781 L100.833117,0.424630781 L96.1939718,16.7516843 L93.2041694,16.7516843 L88.6120639,0.21231539 Z M90.2174309,16.7516843 L87.196976,16.7516843 L82.3868838,0.424630781 L85.4733596,0.424630781 L90.2174309,16.7516843 Z M127.891083,8.40768946 C127.891083,13.1210911 125.02507,16.857842 120.415398,16.857842 C115.805609,16.857842 112.939713,13.1210911 112.939713,8.40768946 C112.939713,3.65182472 115.905937,0 120.415398,0 C124.92486,0 127.891083,3.65182472 127.891083,8.40768946 Z M124.844574,8.28042512 C124.844574,10.7431588 123.682253,13.7792688 120.415398,13.7792688 C117.148544,13.7792688 115.986105,10.7431588 115.986105,8.28042512 C115.986105,5.69005246 117.629553,3.07857316 120.415398,3.07857316 C123.201243,3.07857316 124.844574,5.69005246 124.844574,8.28042512 Z M4.91537253,9.75037096 C3.60655129,6.15441415 5.460641,2.17830593 9.05659781,0.869484683 L9.81167732,0.594658216 C13.4076341,-0.714163027 17.3837424,1.13992669 18.6925636,4.7358835 L15.6803462,5.83224097 C14.9438411,3.80870972 12.7063895,2.76536891 10.6828582,3.50187406 L10.2579568,3.65652551 C8.2344256,4.39303065 7.19108479,6.63048223 7.92758993,8.65401349 L4.91537253,9.75037096 Z M-0.40183474,12.2997457 L2.61038266,11.2033882 C3.34688781,13.2269194 5.6794568,14.2356403 7.82032133,13.4564294 C9.96118585,12.6772184 11.0996441,10.4051469 10.3631389,8.38161568 L13.3753563,7.2852582 C14.6841776,10.881215 12.6610576,14.9188452 8.85659129,16.3035577 C5.05212503,17.6882702 0.906986504,15.8957025 -0.40183474,12.2997457 Z" id="Fill-1"></path>
                        </g>
                    </g>
                    <g id="Group-2" transform="translate(0.000000, 3.000000)" stroke="#999999" stroke-width="0.7">
                        <g id="Group-3">
                            <path d="M0,0 L8,10" id="Path-11"></path>
                            <path d="M0,0 L8,10" id="Path-11-Copy" transform="translate(4.000000, 5.000000) scale(-1, 1) translate(-4.000000, -5.000000) "></path>
                        </g>
                    </g>
                </g>
                <g id="Group-22">
                    <polygon id="Fill-1" fill="#101C4E" points="130.760933 2.09706667 129.1916 3.6664 135.0476 9.5224 129.1916 15.3787333 130.760933 16.9477333 138.185933 9.5224"></polygon>
                    <polygon id="Fill-2" fill="#101C4E" points="139.242 9.5222 146.667333 16.9475333 148.236333 15.3788667 148.236333 15.3782 142.380333 9.5222 148.236333 3.66653333 148.236333 3.66586667 146.667333 2.0972"></polygon>
                    <polygon id="Fill-3" fill="#D73035" points="138.714 5.8562 132.858 0.0002 131.289 1.5692 138.714 8.99453333 146.139333 1.5692 144.570333 0.0002"></polygon>
                    <polygon id="Fill-4" fill="#D73035" points="131.288933 17.4756333 132.857933 19.0449667 138.713933 13.1886333 144.570267 19.0449667 146.139267 17.4756333 138.713933 10.0503"></polygon>
                    <g id="Group-21" transform="translate(0.000000, 8.057033)">
                        <path d="M2.49613333,0.00616666667 L3.60546667,3.1035 C3.97546667,4.14383333 4.3458,5.2075 4.5308,6.2935 L4.57713333,6.2935 L5.20113333,3.88916667 L6.42546667,0.00616666667 L8.7838,0.00616666667 L5.57013333,8.58216667 L8.7838,17.4355 L6.42546667,17.4355 L5.36246667,14.3838333 C4.9698,13.2515 4.55346667,12.1185 4.41446667,10.9168333 L4.36813333,10.9168333 C4.3458,11.6101667 4.1368,12.2805 3.92913333,12.9278333 L2.49613333,17.4355 L0.000133333333,17.4355 L3.30513333,8.58216667 L0.207466667,0.00616666667 L2.49613333,0.00616666667 Z" id="Fill-5" fill="#121D4F"></path>
                        <path d="M23.9199667,0.00616666667 L25.0293,3.1035 C25.3993,4.14383333 25.7696333,5.2075 25.9546333,6.2935 L26.0009667,6.2935 L26.6249667,3.88916667 L27.8493,0.00616666667 L30.2079667,0.00616666667 L26.9939667,8.58216667 L30.2079667,17.4355 L27.8493,17.4355 L26.7863,14.3838333 C26.3936333,13.2515 25.9773,12.1185 25.8383,10.9168333 L25.7923,10.9168333 C25.7696333,11.6101667 25.5606333,12.2805 25.3533,12.9278333 L23.9199667,17.4355 L21.4239667,17.4355 L24.7293,8.58216667 L21.6316333,0.00616666667 L23.9199667,0.00616666667 Z" id="Fill-7" fill="#121D4F"></path>
                        <path d="M47.0443,15.4707 C49.0553,15.5630333 49.5629667,14.5227 49.5629667,12.6043667 C49.5629667,10.6853667 49.1703,9.4837 47.0443,9.53003333 L47.0443,15.4707 Z M47.4369667,1.9707 L47.0443,1.9707 L47.0443,7.68036667 C49.1939667,7.77303333 49.4943,6.43236667 49.4943,4.5827 C49.4943,3.21903333 49.0316333,1.9477 47.4369667,1.9707 Z M44.8483,17.4353667 L44.8483,0.00603333333 L47.7373,0.00603333333 C50.8809667,0.00603333333 51.7593,1.7397 51.7593,4.67536667 C51.7593,6.38603333 51.4126333,8.05036667 49.5629667,8.5357 L49.5629667,8.58203333 C51.5513,9.20603333 52.0139667,10.7317 52.0139667,12.6730333 C52.0139667,15.8867 50.8349667,17.4353667 47.6219667,17.4353667 L44.8483,17.4353667 Z" id="Fill-9" fill="#121D4F"></path>
                        <polygon id="Fill-11" fill="#121D4F" points="68.3745667 0.00616666667 68.3745667 15.4245 72.2575667 15.4245 72.2575667 17.4355 66.0635667 17.4355 66.0635667 0.00616666667"></polygon>
                        <path d="M87.5799667,0.00616666667 L87.5799667,12.7888333 C87.5799667,15.0311667 88.2503,15.4938333 89.1979667,15.4938333 C90.7926333,15.4938333 90.9316333,14.4765 90.9553,13.0431667 L90.9553,0.00616666667 L93.2663032,0.00616666667 L93.2663,12.3731667 C93.2663,14.6615 93.2899667,17.6665 89.2669667,17.6665 C85.5916333,17.6665 85.2686333,15.1698333 85.2686333,12.0261667 L85.2686333,0.00616666667 L87.5799667,0.00616666667 Z" id="Fill-13" fill="#121D4F"></path>
                        <polygon id="Fill-15" fill="#121D4F" points="113.834833 0.00616666667 113.834833 2.01716667 109.927833 2.01716667 109.927833 7.49516667 113.418167 7.49516667 113.418167 9.50683333 109.927833 9.50683333 109.927833 15.4245 113.834833 15.4245 113.834833 17.4355 107.616833 17.4355 107.616833 0.00616666667"></polygon>
                        <polygon id="Fill-17" fill="#101C4E" points="120.211467 0.00616666667 120.211467 0.342833333 119.774133 0.342833333 119.774133 2.9245 119.387133 2.9245 119.387133 0.342833333 118.930467 0.342833333 118.930467 0.00616666667"></polygon>
                        <polygon id="Fill-19" fill="#101C4E" points="122.016467 0.00616666667 122.430467 2.1115 122.438467 2.1115 122.450133 1.99183333 122.5658 1.29116667 122.8178 0.00616666667 123.158133 0.00616666667 123.429133 2.9245 123.0498 2.9245 122.980133 1.83683333 122.957133 1.29516667 122.949467 0.911833333 122.941467 0.911833333 122.8758 1.32983333 122.5738 2.9245 122.3068 2.9245 121.931133 0.911833333 121.9238 0.911833333 121.811467 2.9245 121.4438 2.9245 121.6838 0.00616666667"></polygon>
                    </g>
                </g>
            </g>
        </g>
    </g>
</svg>