<?xml version="1.0" encoding="UTF-8"?>
<svg width="20px" height="32px" viewBox="0 0 20 32" version="1.1" xmlns="http://www.w3.org/2000/svg" xmlns:xlink="http://www.w3.org/1999/xlink">
    <!-- Generator: Sketch 52.5 (67469) - http://www.bohemiancoding.com/sketch -->
    <title>Group Copy</title>
    <desc>Created with Sketch.</desc>
    <g id="keyscreens" stroke="none" stroke-width="1" fill="none" fill-rule="evenodd">
        <g id="Group-Copy" transform="translate(1.000000, 1.000000)">
            <g id="Group-3" fill="#FFFFFF" stroke="#444444" stroke-width="1.2">
                <path d="M9,18 C11.209139,18 13,16.209139 13,14 C10.171224,14.0827038 11.209139,14 9,14 C6.790861,14 7.83789062,14.0394411 5,14 C5,16.209139 6.790861,18 9,18 Z" id="Oval"></path>
                <path d="M17.4109908,15 C17.7362452,15 18,14.7466243 18,14.434169 C18,13.8620121 17.741772,13.3201292 17.2924599,12.9485944 C15.6744189,11.6044492 14.1771431,9.70791568 14.1771431,4.97296422 C14.1771431,2.23079066 11.8547369,0 9.00023518,0 C6.14526308,0 3.82262174,2.23079066 3.82262174,4.97296422 C3.82262174,9.71220827 2.32593386,11.6068215 0.706481832,12.9499499 C0.257522505,13.3255514 0,13.8665306 0,14.434169 C0,14.7466243 0.263637195,15 0.588891647,15 L17.4109908,15 Z" id="Fill-1"></path>
            </g>
            <path d="M6.32910156,26.6748047 C6.32910156,27.3714228 6.21191523,27.9793268 5.97753906,28.4985352 C5.74316289,29.0177435 5.41113496,29.4140611 4.98144531,29.6875 C4.55175566,29.9609389 4.05045859,30.0976562 3.47753906,30.0976562 C2.91764043,30.0976562 2.42122612,29.9601251 1.98828125,29.6850586 C1.55533638,29.4099921 1.21923948,29.0177434 0.979980469,28.5083008 C0.74072146,27.9988581 0.617838574,27.4088575 0.611328125,26.7382812 L0.611328125,26.2255859 C0.611328125,25.5419888 0.730142041,24.9381537 0.967773438,24.4140625 C1.20540483,23.8899713 1.54150173,23.4887709 1.97607422,23.2104492 C2.4106467,22.9321275 2.9078748,22.7929688 3.46777344,22.7929688 C4.03743774,22.7929688 4.53954861,22.9304999 4.97412109,23.2055664 C5.40869358,23.4806329 5.74316289,23.8793919 5.97753906,24.4018555 C6.21191523,24.924319 6.32910156,25.5322231 6.32910156,26.2255859 L6.32910156,26.6748047 Z M5.39648438,26.2158203 C5.39648438,25.3727171 5.22721523,24.725751 4.88867188,24.2749023 C4.55012852,23.8240537 4.07650044,23.5986328 3.46777344,23.5986328 C2.87532256,23.5986328 2.40901863,23.8240537 2.06884766,24.2749023 C1.72867668,24.725751 1.55371099,25.3515585 1.54394531,26.1523438 L1.54394531,26.6748047 C1.54394531,27.4918661 1.71565583,28.1339495 2.05908203,28.6010742 C2.40250823,29.068199 2.87532251,29.3017578 3.47753906,29.3017578 C4.08301084,29.3017578 4.55175615,29.0812197 4.88378906,28.6401367 C5.21582197,28.1990538 5.3867187,27.5667359 5.39648438,26.7431641 L5.39648438,26.2158203 Z M11.65625,26.8603516 L8.67285156,26.8603516 L8.67285156,30 L7.73535156,30 L7.73535156,22.890625 L12.1396484,22.890625 L12.1396484,23.6621094 L8.67285156,23.6621094 L8.67285156,26.09375 L11.65625,26.09375 L11.65625,26.8603516 Z M17.1835938,26.8603516 L14.2001953,26.8603516 L14.2001953,30 L13.2626953,30 L13.2626953,22.890625 L17.6669922,22.890625 L17.6669922,23.6621094 L14.2001953,23.6621094 L14.2001953,26.09375 L17.1835938,26.09375 L17.1835938,26.8603516 Z" id="off" fill="#444444"></path>
            <path d="M17,0 L0.5,18" id="Path-8" stroke="#444444" stroke-width="1.2" stroke-linecap="round"></path>
        </g>
    </g>
</svg>