<?xml version="1.0" encoding="UTF-8"?>
<svg width="20px" height="32px" viewBox="0 0 20 32" version="1.1" xmlns="http://www.w3.org/2000/svg" xmlns:xlink="http://www.w3.org/1999/xlink">
    <!-- Generator: Sketch 52.5 (67469) - http://www.bohemiancoding.com/sketch -->
    <title>Group Copy</title>
    <desc>Created with Sketch.</desc>
    <g id="keyscreens" stroke="none" stroke-width="1" fill="none" fill-rule="evenodd">
        <g id="Group-Copy" transform="translate(1.000000, 1.000000)">
            <path d="M9,18 C11.209139,18 13,16.209139 13,14 C10.171224,14.0827038 11.209139,14 9,14 C6.790861,14 7.83789062,14.0394411 5,14 C5,16.209139 6.790861,18 9,18 Z" id="Oval" stroke="#444444" stroke-width="1.2" fill="#FFFFFF"></path>
            <path d="M17.4109908,15 C17.7362452,15 18,14.7466243 18,14.434169 C18,13.8620121 17.741772,13.3201292 17.2924599,12.9485944 C15.6744189,11.6044492 14.1771431,9.70791568 14.1771431,4.97296422 C14.1771431,2.23079066 11.8547369,0 9.00023518,0 C6.14526308,0 3.82262174,2.23079066 3.82262174,4.97296422 C3.82262174,9.71220827 2.32593386,11.6068215 0.706481832,12.9499499 C0.257522505,13.3255514 0,13.8665306 0,14.434169 C0,14.7466243 0.263637195,15 0.588891647,15 L17.4109908,15 Z" id="Fill-1" stroke="#444444" stroke-width="1.2" fill="#FFFFFF"></path>
            <path d="M8.29199219,26.6748047 C8.29199219,27.3714228 8.17480586,27.9793268 7.94042969,28.4985352 C7.70605352,29.0177435 7.37402559,29.4140611 6.94433594,29.6875 C6.51464629,29.9609389 6.01334922,30.0976562 5.44042969,30.0976562 C4.88053105,30.0976562 4.38411675,29.9601251 3.95117188,29.6850586 C3.518227,29.4099921 3.1821301,29.0177434 2.94287109,28.5083008 C2.70361208,27.9988581 2.5807292,27.4088575 2.57421875,26.7382812 L2.57421875,26.2255859 C2.57421875,25.5419888 2.69303267,24.9381537 2.93066406,24.4140625 C3.16829546,23.8899713 3.50439236,23.4887709 3.93896484,23.2104492 C4.37353733,22.9321275 4.87076543,22.7929688 5.43066406,22.7929688 C6.00032837,22.7929688 6.50243923,22.9304999 6.93701172,23.2055664 C7.3715842,23.4806329 7.70605352,23.8793919 7.94042969,24.4018555 C8.17480586,24.924319 8.29199219,25.5322231 8.29199219,26.2255859 L8.29199219,26.6748047 Z M7.359375,26.2158203 C7.359375,25.3727171 7.19010586,24.725751 6.8515625,24.2749023 C6.51301914,23.8240537 6.03939106,23.5986328 5.43066406,23.5986328 C4.83821318,23.5986328 4.37190925,23.8240537 4.03173828,24.2749023 C3.69156731,24.725751 3.51660161,25.3515585 3.50683594,26.1523438 L3.50683594,26.6748047 C3.50683594,27.4918661 3.67854646,28.1339495 4.02197266,28.6010742 C4.36539885,29.068199 4.83821313,29.3017578 5.44042969,29.3017578 C6.04590146,29.3017578 6.51464678,29.0812197 6.84667969,28.6401367 C7.1787126,28.1990538 7.34960933,27.5667359 7.359375,26.7431641 L7.359375,26.2158203 Z M15.1621094,30 L14.2197266,30 L10.640625,24.5214844 L10.640625,30 L9.69824219,30 L9.69824219,22.890625 L10.640625,22.890625 L14.2294922,28.3935547 L14.2294922,22.890625 L15.1621094,22.890625 L15.1621094,30 Z" id="on" fill="#444444"></path>
        </g>
    </g>
</svg>