<?xml version="1.0" encoding="UTF-8"?>
<svg width="20px" height="21px" viewBox="0 0 20 21" version="1.1" xmlns="http://www.w3.org/2000/svg" xmlns:xlink="http://www.w3.org/1999/xlink">
    <!-- Generator: Sketch 52.5 (67469) - http://www.bohemiancoding.com/sketch -->
    <title>Group 7 Copy</title>
    <desc>Created with Sketch.</desc>
    <defs>
        <path d="M5,0 L21.3,0 C24.0614237,-5.07265313e-16 26.3,2.23857625 26.3,5 L26.3,19.1675676 C26.3,21.9289913 24.0614237,24.1675676 21.3,24.1675676 L5,24.1675676 C2.23857625,24.1675676 -2.32635838e-15,21.9289913 -2.66453526e-15,19.1675676 L0,5 C-3.38176876e-16,2.23857625 2.23857625,5.07265313e-16 5,0 Z M17.0594595,1.42162162 C14.7040396,1.42162162 12.7945946,3.33106666 12.7945946,5.68648649 C12.7945946,8.04190631 14.7040396,9.95135135 17.0594595,9.95135135 C19.4148793,9.95135135 21.3243243,8.04190631 21.3243243,5.68648649 C21.3243243,3.33106666 19.4148793,1.42162162 17.0594595,1.42162162 Z" id="path-1"></path>
    </defs>
    <g id="symbols" stroke="none" stroke-width="1" fill="none" fill-rule="evenodd">
        <g id="Group-7-Copy" transform="translate(-2.000000, -2.000000)">
            <mask id="mask-2" fill="white">
                <use xlink:href="#path-1"></use>
            </mask>
            <g id="Mask"></g>
            <g id="Group-2" mask="url(#mask-2)" stroke="#444444" stroke-width="1.2">
                <g transform="translate(3.554054, 3.554054)">
                    <path d="M9.04802928,17.9183559 C11.1008431,17.9183559 12.7649775,16.5790923 12.7649775,14.927027 C10.136374,14.9888756 11.1008431,14.927027 9.04802928,14.927027 C6.99521547,14.927027 7.96815419,14.9565223 5.33108108,14.927027 C5.33108108,16.5790923 6.99521547,17.9183559 9.04802928,17.9183559 Z" id="Oval"></path>
                    <path d="M17.1887784,14.8085586 C17.5098817,14.8085586 17.7702703,14.5584166 17.7702703,14.2499491 C17.7702703,13.6850945 17.5153379,13.1501276 17.0717603,12.7833345 C15.47437,11.4563444 13.9962036,9.58401586 13.9962036,4.90949546 C13.9962036,2.20231961 11.7034377,-1.54543045e-13 8.88536731,-1.54543045e-13 C6.06683254,-1.54543045e-13 3.77383452,2.20231961 3.77383452,4.90949546 C3.77383452,9.58825366 2.29624852,11.4586863 0.697465172,12.7846728 C0.254235807,13.1554806 0,13.6895554 0,14.2499491 C0,14.5584166 0.260272456,14.8085586 0.581375763,14.8085586 L17.1887784,14.8085586 Z" id="Fill-1"></path>
                </g>
            </g>
            <rect id="Rectangle" fill="#E75149" x="14.3" y="2" width="6.68648649" height="6.68648649" rx="3.34324324"></rect>
        </g>
    </g>
</svg>