<svg xmlns="http://www.w3.org/2000/svg" xmlns:xlink="http://www.w3.org/1999/xlink" width="190" height="208" viewBox="0 0 190 208">
    <defs>
        <rect id="f369kw65xb" width="162" height="180" x="0" y="0" rx="6"/>
        <rect id="orhv126ykc" width="45" height="45" x="0" y="0" rx="9"/>
        <filter id="d8y0qxtava" width="130.9%" height="127.8%" x="-15.4%" y="-9.4%" filterUnits="objectBoundingBox">
            <feOffset dy="8" in="SourceAlpha" result="shadowOffsetOuter1"/>
            <feGaussianBlur in="shadowOffsetOuter1" result="shadowBlurOuter1" stdDeviation="7"/>
            <feComposite in="shadowBlurOuter1" in2="SourceAlpha" operator="out" result="shadowBlurOuter1"/>
            <feColorMatrix in="shadowBlurOuter1" values="0 0 0 0 0.882352941 0 0 0 0 0.898039216 0 0 0 0 0.917647059 0 0 0 0.3 0"/>
        </filter>
        <path id="3mzazo6l3e" d="M0.176 0.266L26.381 0.266 26.381 17.925 0.176 17.925z"/>
    </defs>
    <g fill="none" fill-rule="evenodd">
        <g>
            <g>
                <g>
                    <g>
                        <g>
                            <g transform="translate(-182 -5146) translate(0 763) translate(0 4043) translate(18 346) translate(178)">
                                <use fill="#000" filter="url(#d8y0qxtava)" xlink:href="#f369kw65xb"/>
                                <rect width="161" height="179" x=".5" y=".5" fill="#FFF" stroke="#ECEFF4" stroke-linejoin="square" rx="6"/>
                            </g>
                            <text fill="#4A4A4A" font-family="NotoSansCJKkr-Regular, Noto Sans CJK KR" font-size="11" transform="translate(-182 -5146) translate(0 763) translate(0 4043) translate(18 346) translate(178)">
                                <tspan x="60.76" y="156">다운로드</tspan>
                            </text>
                            <text fill="#1E1E1E" font-family="NotoSansCJKkr-Regular, Noto Sans CJK KR" font-size="13" transform="translate(-182 -5146) translate(0 763) translate(0 4043) translate(18 346) translate(178)">
                                <tspan x="51.6" y="96">하나멤버스</tspan>
                            </text>
                            <g transform="translate(-182 -5146) translate(0 763) translate(0 4043) translate(18 346) translate(178) translate(59 28)">
                                <mask id="00gin40m3d" fill="#fff">
                                    <use xlink:href="#orhv126ykc"/>
                                </mask>
                                <rect width="44" height="44" x=".5" y=".5" stroke="#F1F1F1" rx="9"/>
                                <g mask="url(#00gin40m3d)">
                                    <g>
                                        <path fill="#FEFEFE" d="M31.2 17.401c0 7.955-6.447 14.399-14.4 14.399S2.4 25.356 2.4 17.401C2.4 9.45 8.847 3 16.8 3s14.4 6.449 14.4 14.401" transform="translate(6.517 6.133)"/>
                                        <g transform="translate(6.517 6.133) translate(6)">
                                            <mask id="f07jj93anf" fill="#fff">
                                                <use xlink:href="#3mzazo6l3e"/>
                                            </mask>
                                            <path fill="#5DC3B7" d="M11.22 2.348c8.265 0 14.966 6.786 14.966 15.161 0 .138-.008.278-.011.416.133-.813.206-1.646.206-2.498 0-8.372-6.7-15.16-14.965-15.16C6.936.266 2.92 2.26.176 5.421 2.53 3.716 5.386 2.689 8.48 2.605c.89-.165 1.804-.257 2.74-.257" mask="url(#f07jj93anf)"/>
                                        </g>
                                        <path fill="#C3E4D6" d="M32.4 18c-.656 3.955-2.872 7.375-5.995 9.613C24.26 30.055 21.326 31.782 18 32.4c7.857-.207 14.186-6.536 14.4-14.4" transform="translate(6.517 6.133)"/>
                                        <path fill="#5DC3B7" d="M2.307 17.271c0-.838.07-1.658.202-2.455.097-3.607 1.457-6.89 3.652-9.416C2.432 8.099 0 12.519 0 17.514 0 25.736 6.584 32.4 14.708 32.4c.92 0 1.819-.087 2.692-.25-.129.002-.256.008-.387.008-8.122 0-14.706-6.666-14.706-14.887" transform="translate(6.517 6.133)"/>
                                        <path fill="#00928F" d="M14.4 3c-3.088.08-5.941 1.074-8.29 2.724C3.88 8.214 2.5 11.447 2.4 15c1.027-6.074 5.852-10.882 12-12M26.4 27.565c-2.466 1.75-5.484 2.785-8.749 2.785-8.315 0-15.055-6.689-15.055-14.938 0-.139.007-.275.01-.412-.134.8-.206 1.623-.206 2.464C2.4 25.712 9.14 32.4 17.454 32.4c.134 0 .264-.006.396-.009 3.384-.622 6.369-2.364 8.55-4.826" transform="translate(6.517 6.133)"/>
                                        <path fill="#EC1066" d="M17.092 2.4c-.92 0-1.818.092-2.692.256.13-.002.258-.009.387-.009 8.122 0 14.706 6.731 14.706 15.033 0 3.803-1.383 7.273-3.662 9.92 3.104-2.27 5.307-5.74 5.959-9.753.003-.137.01-.275.01-.412C31.8 9.129 25.215 2.4 17.092 2.4" transform="translate(6.517 6.133)"/>
                                        <path fill="#00928F" d="M10.8 12L10.8 17.4 9.768 17.4 9.768 14.803 7.632 14.803 7.632 17.4 6.6 17.4 6.6 12 7.632 12 7.632 14.098 9.768 14.098 9.768 12zM15.054 15.225l-.6-1.96-.71 1.96h1.31zM14.964 12l1.836 5.4h-1.082l-.457-1.504H13.5L12.96 17.4H12l2.02-5.4h.944zM22.2 12L22.2 17.4 21.271 17.4 18.425 13.581 18.425 17.4 17.4 17.4 17.4 12 18.296 12 21.174 15.842 21.174 12zM25.255 15.225l-.602-1.96-.709 1.96h1.311zM25.163 12L27 17.4h-1.082l-.458-1.504h-1.759L23.16 17.4H22.2l2.02-5.4h.943zM10.2 19.2v3h-.644v-2.106c-.319.695-.64 1.417-.955 2.106h-.458l-.936-2.088V22.2H6.6v-3h.776l1.043 2.322c.348-.754.68-1.567 1.025-2.322h.756zM12.51 19.2L12.51 19.588 11.391 19.588 11.391 20.43 12.48 20.43 12.48 20.821 11.391 20.821 11.391 21.811 12.6 21.811 12.6 22.2 10.8 22.2 10.8 19.2zM16.8 19.2v3h-.644v-2.106c-.32.695-.64 1.417-.955 2.106h-.46l-.935-2.088V22.2H13.2v-3h.776l1.043 2.322c.347-.754.681-1.567 1.025-2.322h.756zM18.1 20.824v1.002h.364c.355 0 .612-.18.612-.506 0-.364-.323-.496-.673-.496H18.1zm0-1.253v.88h.258c.39 0 .582-.193.582-.482 0-.238-.167-.398-.476-.398H18.1zm.43 2.629H17.4v-3h1.206c.598 0 1.027.278 1.027.688 0 .402-.277.634-.566.722.414.086.733.303.733.71 0 .53-.444.88-1.27.88zM22.11 19.2L22.11 19.588 20.99 19.588 20.99 20.43 22.08 20.43 22.08 20.821 20.99 20.821 20.99 21.811 22.2 21.811 22.2 22.2 20.4 22.2 20.4 19.2zM22.86 19.588v1.016h.193c.468 0 .58-.3.58-.521 0-.34-.207-.495-.475-.495h-.297zM22.2 22.2v-3h1.026c.617 0 1.073.342 1.073.808 0 .428-.193.688-.48.852.254.44.528.899.781 1.34h-.733l-.662-1.205h-.344V22.2H22.2zM26.887 19.405l-.136.4c-.188-.164-.42-.217-.575-.217-.217 0-.348.125-.348.3 0 .248.278.408.567.63.393.294.605.506.605.878 0 .405-.338.804-.956.804-.26 0-.599-.057-.844-.216l.123-.425c.192.146.46.256.706.256.22 0 .412-.145.412-.402 0-.275-.254-.447-.486-.617-.298-.218-.693-.432-.686-.903.008-.421.335-.693.867-.693.265 0 .567.077.75.205" transform="translate(6.517 6.133)"/>
                                    </g>
                                </g>
                            </g>
                            <path stroke="#F6F7F8" stroke-linecap="square" d="M13.5 123.5L148.5 123.5" transform="translate(-182 -5146) translate(0 763) translate(0 4043) translate(18 346) translate(178)"/>
                        </g>
                    </g>
                </g>
            </g>
        </g>
    </g>
</svg>
