<svg xmlns="http://www.w3.org/2000/svg" width="41" height="41" viewBox="0 0 41 41">
    <g fill="none" fill-rule="evenodd">
        <g fill="#85878C" fill-rule="nonzero">
            <path d="M806 2844.652h-14.652V2831H765v19.522h3.913v8.978c.725-.667 3.794-3.66 9.21-8.978h3.53v12.652h11.225l9.209 8.826v-8.826H806v-18.522zm-28.68 3.913c-.074.069-2.224 2.216-6.45 6.443v-6.443h-3.913v-15.608h22.434v15.608H777.32zm26.723 12.652h-3.913v6.443l-6.156-6.156c-.183-.184-.183-.184-.274-.287h-10.091v-10.695c4.594.01 7.174.01 7.739 0v-3.913h12.695v14.608z" transform="translate(-765 -2831)"/>
        </g>
    </g>
</svg>
