<svg xmlns="http://www.w3.org/2000/svg" width="40" height="40" viewBox="0 0 40 40">
    <g fill="none" fill-rule="evenodd">
        <g>
            <g transform="translate(-214 -2830) translate(214 2830)">
                <path fill="#85878C" d="M18.849 22.656l-.71-9.193-.117-2.414c-.027-.552.398-1.02.95-1.048L19.02 10h2.9c.552 0 1 .448 1 1 0 .016 0 .032-.002.049l-.117 2.414-.71 9.193H18.85zm1.62 7.84c-1.411 0-2.469-1.13-2.469-2.584 0-1.453 1.058-2.584 2.468-2.584s2.496 1.13 2.496 2.584c0 1.453-1.085 2.583-2.496 2.583z"/>
                <rect width="38.15" height="38.15" x=".925" y=".925" stroke="#85878C" stroke-width="1.85" rx="19.075"/>
            </g>
        </g>
    </g>
</svg>
