<svg xmlns="http://www.w3.org/2000/svg" xmlns:xlink="http://www.w3.org/1999/xlink" width="217" height="65" viewBox="0 0 217 65">
    <defs>
        <path id="jl2f8hdnmb" d="M0 0L19.806 0 19.806 19.163 0 19.163z"/>
        <path id="8j71yauf2d" d="M0.093 0.656L9.496 0.656 9.496 14.448 0.093 14.448z"/>
        <path id="dhzwpe2b9f" d="M0 0L9.401 0 9.401 13.792 0 13.792z"/>
        <path id="fgqn2g4reh" d="M0.051 0.532L8.45 0.532 8.45 14.325 0.051 14.325z"/>
        <filter id="vsn5xyrl9a">
            <feColorMatrix in="SourceGraphic" values="0 0 0 0 0.117647 0 0 0 0 0.117647 0 0 0 0 0.117647 0 0 0 1.000000 0"/>
        </filter>
    </defs>
    <g fill="none" fill-rule="evenodd">
        <g>
            <g>
                <g transform="translate(-742 -982) translate(740 503) translate(2.985 479.036)">
                    <rect width="216" height="64" fill="#7DDEC5" rx="32"/>
                    <g filter="url(#vsn5xyrl9a)">
                        <g>
                            <g>
                                <g transform="translate(48 18) translate(0 6.092)">
                                    <mask id="5131r6dalc" fill="#fff">
                                        <use xlink:href="#jl2f8hdnmb"/>
                                    </mask>
                                    <path fill="#FFF" d="M16.543 7.338c-.028-3.19 2.517-4.742 2.635-4.814C17.736.342 15.501.043 14.715.02c-1.877-.204-3.697 1.164-4.653 1.164-.976 0-2.448-1.144-4.034-1.11-2.041.033-3.954 1.259-5.002 3.163-2.162 3.883-.548 9.59 1.524 12.73 1.034 1.538 2.245 3.255 3.83 3.194 1.552-.067 2.131-1.026 4.003-1.026 1.853 0 2.396 1.026 4.013.986 1.664-.027 2.712-1.544 3.712-3.095 1.198-1.762 1.68-3.497 1.698-3.587-.039-.013-3.232-1.278-3.263-5.102" mask="url(#5131r6dalc)"/>
                                </g>
                                <path fill="#FFF" d="M13.49 4.047c.832-1.081 1.404-2.553 1.245-4.047-1.207.055-2.717.865-3.585 1.925-.77.932-1.457 2.461-1.279 3.898 1.356.104 2.747-.71 3.618-1.776" transform="translate(48 18)"/>
                            </g>
                            <g>
                                <path fill="#FFF" d="M7.473 8.54L6.33 5.043c-.121-.358-.35-1.2-.685-2.524h-.04c-.134.57-.347 1.411-.642 2.524L3.837 8.54h3.636zm3.956 5.585H9.12L7.854 10.19h-4.4L2.25 14.125H0L4.359.73H7.05l4.378 13.394z" transform="translate(48 18) translate(30.378 4.712)"/>
                                <g transform="translate(48 18) translate(30.378 4.712) translate(13.144 3.612)">
                                    <mask id="wqsbgjdcde" fill="#fff">
                                        <use xlink:href="#8j71yauf2d"/>
                                    </mask>
                                    <path fill="#FFF" d="M7.285 5.644c0-.94-.213-1.715-.642-2.325-.47-.637-1.1-.954-1.888-.954-.535 0-1.02.176-1.457.526-.434.353-.72.813-.854 1.383-.066.265-.101.483-.101.653v1.61c0 .703.22 1.297.654 1.78.436.483 1.001.725 1.697.725.817 0 1.454-.312 1.908-.932.455-.624.683-1.447.683-2.466m2.21-.08c0 1.643-.45 2.942-1.345 3.896-.804.848-1.802 1.272-2.993 1.272-1.286 0-2.21-.457-2.773-1.372h-.041v5.089H.176V4.035c0-1.033-.028-2.092-.083-3.18h1.91l.12 1.53h.04C2.887 1.234 3.985.656 5.457.656c1.153 0 2.114.452 2.883 1.352.77.902 1.156 2.088 1.156 3.557" mask="url(#wqsbgjdcde)"/>
                                </g>
                                <g transform="translate(48 18) translate(30.378 4.712) translate(24.466 4.268)">
                                    <mask id="dpy1kygqxg" fill="#fff">
                                        <use xlink:href="#dhzwpe2b9f"/>
                                    </mask>
                                    <path fill="#FFF" d="M7.193 4.988c0-.939-.216-1.715-.644-2.325-.47-.637-1.098-.954-1.889-.954-.535 0-1.02.176-1.457.526-.434.353-.717.814-.853 1.383-.067.265-.1.483-.1.654v1.61c0 .703.217 1.297.652 1.778.434.484 1.002.726 1.698.726.818 0 1.454-.312 1.908-.932.455-.624.685-1.446.685-2.466m2.208-.08c0 1.644-.448 2.942-1.346 3.897-.804.847-1.801 1.271-2.993 1.271-1.286 0-2.208-.456-2.773-1.372h-.04v5.089H.082V3.379C.081 2.346.053 1.287 0 .2h1.908L2.03 1.73h.041C2.792.577 3.89 0 5.363 0c1.15 0 2.113.452 2.883 1.35.77.903 1.155 2.09 1.155 3.559" mask="url(#dpy1kygqxg)"/>
                                </g>
                                <g transform="translate(48 18) translate(30.378 4.712) translate(37.971)">
                                    <mask id="1sdkavg5yi" fill="#fff">
                                        <use xlink:href="#fgqn2g4reh"/>
                                    </mask>
                                    <path fill="#FFF" d="M8.45 10.37c0 1.138-.4 2.065-1.2 2.782-.884.782-2.112 1.173-3.688 1.173-1.458 0-2.626-.279-3.51-.837L.553 11.7c.953.57 1.998.854 3.136.854.816 0 1.452-.183 1.91-.547.454-.364.68-.854.68-1.463 0-.544-.185-1.003-.56-1.374-.375-.37-.998-.716-1.87-1.036C1.48 7.26.297 5.979.297 4.295c0-1.101.415-2.006 1.246-2.707C2.37.885 3.475.532 4.856.532c1.234 0 2.257.212 3.072.635l-.542 1.75c-.763-.41-1.626-.616-2.59-.616-.763 0-1.36.187-1.788.557-.36.33-.542.734-.542 1.213 0 .528.207.965.622 1.31.362.32 1.018.662 1.97 1.033 1.164.465 2.021 1.007 2.57 1.63.549.623.822 1.4.822 2.327" mask="url(#1sdkavg5yi)"/>
                                </g>
                                <path fill="#FFF" d="M53.594 6.078h-2.39v4.689c0 1.193.42 1.789 1.265 1.789.387 0 .71-.034.964-.1l.059 1.63c-.427.158-.99.239-1.686.239-.857 0-1.526-.26-2.01-.776-.48-.517-.723-1.384-.723-2.604V6.078h-1.425v-1.61h1.425v-1.77l2.13-.635v2.405h2.391v1.61zM62.13 9.286c0-.89-.192-1.654-.581-2.291-.456-.772-1.106-1.157-1.95-1.157-.871 0-1.533.385-1.987 1.157-.39.637-.583 1.413-.583 2.333 0 .89.194 1.652.583 2.29.468.771 1.125 1.156 1.969 1.156.83 0 1.478-.393 1.948-1.177.402-.65.6-1.422.6-2.31m2.253-.07c0 1.485-.429 2.702-1.286 3.656-.897.981-2.091 1.47-3.576 1.47-1.434 0-2.575-.469-3.424-1.41-.851-.94-1.276-2.127-1.276-3.558 0-1.495.437-2.723 1.316-3.675.876-.954 2.057-1.432 3.545-1.432 1.431 0 2.584.47 3.454 1.413.832.913 1.247 2.092 1.247 3.536M71.432 6.354c-.215-.039-.444-.06-.684-.06-.763 0-1.352.286-1.768.856-.361.503-.543 1.14-.543 1.908v5.067H66.27l.019-6.617c0-1.113-.027-2.127-.082-3.04h1.89l.08 1.847h.059c.229-.635.591-1.145 1.085-1.53.484-.344 1.006-.518 1.567-.518.202 0 .382.015.544.042v2.045zM79.065 8.282c.014-.635-.128-1.185-.42-1.649-.377-.596-.954-.894-1.73-.894-.711 0-1.286.29-1.728.875-.36.464-.576 1.02-.642 1.668h4.52zm2.067.557c0 .384-.025.71-.077.974h-6.51c.026.954.34 1.682.945 2.187.547.45 1.258.674 2.129.674.962 0 1.84-.152 2.63-.457l.341 1.49c-.924.4-2.014.597-3.273.597-1.514 0-2.701-.44-3.566-1.322-.863-.882-1.295-2.064-1.295-3.546 0-1.458.4-2.671 1.205-3.637.843-1.033 1.981-1.55 3.413-1.55 1.407 0 2.473.517 3.195 1.55.576.82.863 1.835.863 3.04z" transform="translate(48 18) translate(30.378 4.712)"/>
                            </g>
                        </g>
                    </g>
                </g>
            </g>
        </g>
    </g>
</svg>
