<svg width="24" height="19" viewBox="0 0 24 19" fill="none" xmlns="http://www.w3.org/2000/svg">
<path fill-rule="evenodd" clip-rule="evenodd" d="M8.59105 0.0206299H22.56C23.3539 0.0206299 24 0.666708 24 1.46063V16.8207C24 17.6146 23.3539 18.2607 22.56 18.2607H8.59105C8.18019 18.2607 7.7885 18.085 7.51489 17.7788L0.120973 9.45938C-0.0403242 9.27793 -0.0403242 9.00338 0.120973 8.82193L7.51391 0.503489C7.7885 0.196317 8.18019 0.0206299 8.59105 0.0206299ZM22.56 17.3006C22.824 17.3006 23.04 17.0846 23.04 16.8206V1.46063C23.04 1.19569 22.824 0.98063 22.56 0.98063H8.59105C8.45375 0.98063 8.32227 1.03922 8.23105 1.14193L1.12222 9.14063L8.23199 17.1403C8.32227 17.2411 8.45375 17.3006 8.59105 17.3006H22.56Z" fill="#777777"/>
<path d="M19.0597 4.96183C18.8724 4.77461 18.5681 4.77461 18.381 4.96183L10.701 12.6418C10.5137 12.829 10.5137 13.1334 10.701 13.3205C10.795 13.4137 10.9179 13.4607 11.0408 13.4607C11.1637 13.4607 11.2866 13.4137 11.3797 13.3205L19.0597 5.64053C19.2469 5.45331 19.2469 5.149 19.0597 4.96183Z" fill="#777777"/>
<path d="M19.0596 12.6418L11.3796 4.96183C11.1924 4.77461 10.8881 4.77461 10.7009 4.96183C10.5138 5.14904 10.5137 5.45336 10.7009 5.64053L18.3809 13.3205C18.475 13.4137 18.5979 13.4607 18.7208 13.4607C18.8437 13.4607 18.9666 13.4137 19.0596 13.3205C19.2469 13.1333 19.2469 12.829 19.0596 12.6418Z" fill="#777777"/>
</svg>
