<?xml version="1.0" encoding="utf-8"?>
<!-- Generator: Adobe Illustrator 22.1.0, SVG Export Plug-In . SVG Version: 6.00 Build 0)  -->
<svg version="1.1" id="Capa_1" xmlns="http://www.w3.org/2000/svg" xmlns:xlink="http://www.w3.org/1999/xlink" x="0px" y="0px"
	 viewBox="0 0 80 40" style="enable-background:new 0 0 80 40;" xml:space="preserve">
<path d="M61,40c-0.6,0-1-0.5-1-1.1c0-0.3,0.1-0.5,0.3-0.7L77.6,20L60.3,1.8c-0.4-0.4-0.4-1.1,0-1.5c0.4-0.4,1-0.4,1.4,0l18,18.9
	c0.4,0.4,0.4,1.1,0,1.5l-18,18.9C61.5,39.9,61.3,40,61,40z"/>
<path d="M78.3,21H1.7C0.7,21,0,20.6,0,20c0-0.6,0.7-1.1,1.7-1.1h76.7c0.9,0,1.7,0.5,1.7,1.1C80,20.6,79.3,21,78.3,21z"/>
</svg>
