<svg xmlns="http://www.w3.org/2000/svg" width="111" height="15" viewBox="0 0 111 15">
    <g fill="none" fill-rule="evenodd">
        <g fill="#71D0B8">
            <path d="M779.575 30.316c0 4.1-2.463 7.352-6.425 7.352-3.961 0-6.424-3.251-6.424-7.352 0-4.138 2.549-7.316 6.424-7.316 3.876 0 6.425 3.178 6.425 7.316zm-2.618-.111c0-2.254-1.413-4.526-3.807-4.526s-3.806 2.272-3.806 4.526c0 2.143.999 4.785 3.806 4.785 2.808 0 3.807-2.642 3.807-4.785zm19.772-4.47v11.564h-2.531V25.734h-2.618V23.37h7.767v2.365h-2.618zm19.422-2.55h2.58l2.686 9.68h.035L824 23.37h2.652l-3.986 14.207h-2.57l-3.946-14.391zm1.38 14.39h-2.596L810.8 23.37h2.653l4.077 14.207zm32.375-7.26c0 4.102-2.463 7.353-6.424 7.353-3.962 0-6.424-3.251-6.424-7.352 0-4.138 2.549-7.316 6.424-7.316 3.875 0 6.424 3.178 6.424 7.316zm-98.338-.941c1.125 3.09-.647 6.572-3.957 7.777-3.31 1.205-6.906-.324-8.03-3.414l2.62-.954c.634 1.74 2.657 2.6 4.52 1.921 1.862-.678 2.86-2.637 2.226-4.376l2.621-.954zm91.914-3.695c2.394 0 3.806 2.272 3.806 4.526 0 2.143-.999 4.785-3.806 4.785s-3.806-2.642-3.806-4.785c0-2.254 1.412-4.526 3.806-4.526zm-87.344 1.407l-2.621.954c-.612-1.681-2.43-2.575-4.12-2.061l-.175.058-.448.163c-1.74.633-2.636 2.556-2.003 4.295l-2.62.954c-1.126-3.09.468-6.507 3.558-7.632l.797-.29c3.09-1.125 6.507.469 7.632 3.559z" transform="translate(-739 -23)"/>
        </g>
    </g>
</svg>
