<svg xmlns="http://www.w3.org/2000/svg" xmlns:xlink="http://www.w3.org/1999/xlink" width="465" height="58" viewBox="0 0 465 58">
    <defs>
        <path id="4k60gph4la" d="M410.64 28.774c0 16.13 10.419 28.919 27.18 28.919S465 44.904 465 28.774C465 12.497 454.216 0 437.82 0s-27.18 12.497-27.18 28.774zm11.075-.437c0-8.864 5.977-17.801 16.105-17.801 10.13 0 16.105 8.937 16.105 17.801 0 8.43-4.228 18.82-16.105 18.82-11.879 0-16.105-10.39-16.105-18.82zm-308.64.437c0 16.13 10.42 28.919 27.18 28.919 16.76 0 27.182-12.789 27.182-28.919C167.437 12.497 156.65 0 140.255 0c-16.397 0-27.18 12.497-27.18 28.774zm11.077-.437c0-8.864 5.974-17.801 16.103-17.801 10.128 0 16.106 8.937 16.106 17.801 0 8.43-4.228 18.82-16.106 18.82-11.878 0-16.103-10.39-16.103-18.82zM34.302 1.814c-13.026 4.74-19.74 19.137-15 32.156l.032.09 10.313-3.754-.018-.048c-2.668-7.327 1.11-15.43 8.44-18.095 7.331-2.668 15.436 1.109 18.103 8.436l.02.05 10.311-3.752-.03-.087C62.762 6.62 53.138.294 42.885.294c-2.85 0-5.75.489-8.583 1.52zM322.186.726l16.697 56.604h10.87L366.62 1.452h-11.223l-10.784 37.35h-.146L333.1.725h-10.915zm-22.634.726l17.49 55.878h10.982l-17.25-55.878h-11.222zm-81.325 0v9.301h11.078V56.24h10.712V10.753h11.075v-9.3h-32.865zM36.857 27.994c2.678 7.354-1.092 15.477-8.422 18.145-7.33 2.666-15.443-1.134-18.123-8.488L0 41.404c4.758 13.069 19.177 19.82 32.202 15.082C45.229 51.747 51.93 37.31 47.17 24.24l-10.312 3.753z"/>
    </defs>
    <g fill="none" fill-rule="evenodd">
        <g>
            <g>
                <path fill="#FFF" d="M167.435 28.774c0 16.13-10.421 28.918-27.181 28.918s-27.18-12.788-27.18-28.918C113.074 12.496 123.858 0 140.254 0s27.181 12.496 27.181 28.774zm-11.076-.437c0-8.864-5.976-17.802-16.105-17.802-10.128 0-16.104 8.938-16.104 17.802 0 8.429 4.225 18.82 16.104 18.82 11.877 0 16.105-10.391 16.105-18.82zm83.657-17.584V56.24h-10.713V10.753h-11.076v-9.3h32.865v9.3h-11.076zM322.186.726H333.1l11.367 38.075h.145l10.785-37.349h11.223L349.753 57.33h-10.87L322.186.726zm5.837 56.604H317.04L299.55 1.452h11.223l17.25 55.878zM465 28.774c0 16.13-10.419 28.918-27.18 28.918s-27.182-12.788-27.182-28.918C410.638 12.496 421.424 0 437.82 0S465 12.496 465 28.774zm-11.076-.437c0 8.429-4.227 18.82-16.104 18.82-11.879 0-16.105-10.391-16.105-18.82 0-8.864 5.976-17.802 16.105-17.802 10.128 0 16.104 8.938 16.104 17.802zm-387.42-11.44L56.19 20.65l-.02-.05C53.505 13.273 45.4 9.495 38.069 12.163c-7.33 2.666-11.109 10.767-8.44 18.095l.018.048-10.314 3.753-.03-.088C14.56 20.951 21.273 6.553 34.3 1.814 47.326-2.925 61.73 3.788 66.471 16.81l.032.087zM0 41.404l10.312-3.753c2.679 7.354 10.791 11.153 18.122 8.487 7.33-2.666 11.1-10.79 8.422-18.144L47.17 24.24c4.76 13.07-1.942 27.507-14.968 32.244C19.176 61.225 4.757 54.472 0 41.404z" transform="translate(-740 -503) translate(740 503)"/>
                <g transform="translate(-740 -503) translate(740 503)">
                    <mask id="96a9jx535b" fill="#fff">
                        <use xlink:href="#4k60gph4la"/>
                    </mask>
                    <path fill="#FFF" d="M-0.94 58.94L465.941 58.94 465.941 -0.941 -0.94 -0.941z" mask="url(#96a9jx535b)"/>
                </g>
            </g>
        </g>
    </g>
</svg>
