<svg xmlns="http://www.w3.org/2000/svg" xmlns:xlink="http://www.w3.org/1999/xlink" width="190" height="208" viewBox="0 0 190 208">
    <defs>
        <rect id="ntyk6xj8nb" width="162" height="180" x="0" y="0" rx="6"/>
        <rect id="yfwbib09ec" width="45" height="45" x="0" y="0" rx="9"/>
        <rect id="prsiqmiv2e" width="45" height="45" x="0" y="0" rx="9"/>
        <filter id="t5aky0q1ma" width="130.9%" height="127.8%" x="-15.4%" y="-9.4%" filterUnits="objectBoundingBox">
            <feOffset dy="8" in="SourceAlpha" result="shadowOffsetOuter1"/>
            <feGaussianBlur in="shadowOffsetOuter1" result="shadowBlurOuter1" stdDeviation="7"/>
            <feComposite in="shadowBlurOuter1" in2="SourceAlpha" operator="out" result="shadowBlurOuter1"/>
            <feColorMatrix in="shadowBlurOuter1" values="0 0 0 0 0.882352941 0 0 0 0 0.898039216 0 0 0 0 0.917647059 0 0 0 0.3 0"/>
        </filter>
    </defs>
    <g fill="none" fill-rule="evenodd">
        <g>
            <g>
                <g>
                    <g>
                        <g>
                            <g transform="translate(-182 -5344) translate(0 763) translate(0 4043) translate(18 346) translate(178 198)">
                                <use fill="#000" filter="url(#t5aky0q1ma)" xlink:href="#ntyk6xj8nb"/>
                                <rect width="161" height="179" x=".5" y=".5" fill="#FFF" stroke="#ECEFF4" stroke-linejoin="square" rx="6"/>
                            </g>
                            <text fill="#1E1E1E" font-family="NotoSansCJKkr-Regular, Noto Sans CJK KR" font-size="13" transform="translate(-182 -5344) translate(0 763) translate(0 4043) translate(18 346) translate(178 198)">
                                <tspan x="57.749" y="96">XXBLUE</tspan>
                            </text>
                            <g transform="translate(-182 -5344) translate(0 763) translate(0 4043) translate(18 346) translate(178 198) translate(59 28)">
                                <g>
                                    <mask id="j6af6kvc3d" fill="#fff">
                                        <use xlink:href="#yfwbib09ec"/>
                                    </mask>
                                    <rect width="44" height="44" x=".5" y=".5" stroke="#F1F1F1" rx="9"/>
                                    <g mask="url(#j6af6kvc3d)">
                                        <g>
                                            <path fill="#111C4E" d="M.108 17.975L27.576 45.703.108 73.43 7.468 80.859 42.296 45.703 7.468 10.546zM45.108 45.703L79.936 80.859 87.296 73.43 59.828 45.703 87.296 17.975 79.936 10.546z" transform="translate(-21.283 -23.158)"/>
                                            <path fill="#D73035" d="M69.851.234L43.233 28.312 16.615.234 9.483 7.757 43.233 43.359 76.983 7.757zM9.483 83.648L16.615 91.171 43.233 63.093 69.851 91.171 76.983 83.648 43.233 48.046z" transform="translate(-21.283 -23.158)"/>
                                        </g>
                                    </g>
                                </g>
                            </g>
                            <path stroke="#F6F7F8" stroke-linecap="square" d="M13.5 123.5L148.5 123.5" transform="translate(-182 -5344) translate(0 763) translate(0 4043) translate(18 346) translate(178 198)"/>
                            <text fill="#4A4A4A" font-family="NotoSansCJKkr-Regular, Noto Sans CJK KR" font-size="11" transform="translate(-182 -5344) translate(0 763) translate(0 4043) translate(18 346) translate(178 198)">
                                <tspan x="60.76" y="156">다운로드</tspan>
                            </text>
                        </g>
                    </g>
                </g>
            </g>
        </g>
    </g>
</svg>
