<svg width="40" height="30" viewBox="0 0 40 30" fill="none" xmlns="http://www.w3.org/2000/svg">
<rect width="40" height="30" fill="black"/>
<mask id="mask0" mask-type="alpha" maskUnits="userSpaceOnUse" x="16" y="8" width="8" height="14">
<path fill-rule="evenodd" clip-rule="evenodd" d="M16 8H23.986V22.0001H16V8Z" fill="white"/>
</mask>
<g mask="url(#mask0)">
<path fill-rule="evenodd" clip-rule="evenodd" d="M16.5732 22.0001C16.4263 22.0001 16.2794 21.9469 16.1673 21.8405C15.9438 21.6283 15.9443 21.2849 16.1684 21.0732L22.6009 15.0001L16.1686 8.92687C15.9445 8.71525 15.9439 8.37157 16.1675 8.15941C16.3912 7.94722 16.754 7.94687 16.9781 8.15832L23.8176 14.6159C23.9253 14.7177 23.986 14.8559 23.986 15.0001C23.986 15.1442 23.9255 15.2826 23.8176 15.3842L16.9781 21.8416C16.8661 21.9472 16.7198 22.0001 16.5732 22.0001Z" fill="white"/>
</g>
</svg>
