<?xml version="1.0" encoding="UTF-8"?>
<svg width="4px" height="18px" viewBox="0 0 4 18" version="1.1" xmlns="http://www.w3.org/2000/svg" xmlns:xlink="http://www.w3.org/1999/xlink">
    <!-- Generator: Sketch 52.5 (67469) - http://www.bohemiancoding.com/sketch -->
    <title>Combined Shape Copy</title>
    <desc>Created with Sketch.</desc>
    <g id="Symbols" stroke="none" stroke-width="1" fill="none" fill-rule="evenodd">
        <g id="my-/-cardinfo_01" transform="translate(-915.000000, -141.000000)" fill="#222222">
            <path d="M917,141 C918.104569,141 919,141.895431 919,143 C919,144.104569 918.104569,145 917,145 C915.895431,145 915,144.104569 915,143 C915,141.895431 915.895431,141 917,141 Z M917,148 C918.104569,148 919,148.895431 919,150 C919,151.104569 918.104569,152 917,152 C915.895431,152 915,151.104569 915,150 C915,148.895431 915.895431,148 917,148 Z M917,155 C918.104569,155 919,155.895431 919,157 C919,158.104569 918.104569,159 917,159 C915.895431,159 915,158.104569 915,157 C915,155.895431 915.895431,155 917,155 Z" id="Combined-Shape-Copy"></path>
        </g>
    </g>
</svg>