<svg xmlns="http://www.w3.org/2000/svg" width="37" height="39" viewBox="0 0 37 39">
    <g fill="none" fill-rule="evenodd">
        <g fill="#FFF">
            <g>
                <path d="M287.688 45.93h-15.032v-5.137h15.032v5.137zm-15.032 17.981h12.719V48.5h-12.719v15.412zm3.862-32.581c.939-1.045 2.567-1.043 3.504 0 .969 1.084.969 2.851 0 3.935-.997 1.115-4.047 2.96-5.645 2.96-.33 0-.428-.083-.43-.085-.537-.62 1.012-5.068 2.571-6.81zm-6.174 14.6h-15.031v-5.137H270.342v5.137zm-12.719 17.981h12.719V48.5h-12.719v15.412zm5.353-32.581c.47-.524 1.092-.812 1.753-.812.66 0 1.281.288 1.75.812 1.56 1.742 3.109 6.19 2.57 6.81 0 0-.097.084-.428.084-1.598 0-4.648-1.844-5.645-2.959-.969-1.084-.969-2.851 0-3.935zm17.393 6.894c.525-.398.976-.793 1.29-1.148 1.864-2.083 1.864-5.474 0-7.557-1.81-2.024-4.97-2.027-6.782 0-1.002 1.117-3.663 5.667-3.296 8.705h-.166c.365-3.038-2.294-7.588-3.296-8.705-1.813-2.027-4.971-2.024-6.782 0-1.864 2.083-1.864 5.474-.002 7.557.316.355.767.75 1.292 1.148h-7.317c-1.274 0-2.312 1.154-2.312 2.57v6.42c0 .71.518 1.285 1.156 1.285h1.156v15.412c0 1.416 1.039 2.569 2.313 2.569h27.75c1.274 0 2.313-1.153 2.313-2.569V48.5h1.156c.638 0 1.156-.575 1.156-1.284v-6.422c0-1.415-1.038-2.569-2.313-2.569h-7.316z" transform="translate(-283 -373) translate(30 345)"/>
            </g>
        </g>
    </g>
</svg>
