<?xml version="1.0" encoding="UTF-8"?>
<svg width="20px" height="21px" viewBox="0 0 20 21" version="1.1" xmlns="http://www.w3.org/2000/svg" xmlns:xlink="http://www.w3.org/1999/xlink">
    <!-- Generator: Sketch 52.5 (67469) - http://www.bohemiancoding.com/sketch -->
    <title>Group 7 Copy 2</title>
    <desc>Created with Sketch.</desc>
    <g id="symbols" stroke="none" stroke-width="1" fill="none" fill-rule="evenodd">
        <g id="Group-7-Copy-2" transform="translate(1.000000, 1.000000)" stroke="#444444" stroke-width="1.2">
            <g id="Group-2" transform="translate(0.554054, 0.554054)">
                <path d="M9.04802928,17.9183559 C11.1008431,17.9183559 12.7649775,16.5790923 12.7649775,14.927027 C10.136374,14.9888756 11.1008431,14.927027 9.04802928,14.927027 C6.99521547,14.927027 7.96815419,14.9565223 5.33108108,14.927027 C5.33108108,16.5790923 6.99521547,17.9183559 9.04802928,17.9183559 Z" id="Oval"></path>
                <path d="M17.1887784,14.8085586 C17.5098817,14.8085586 17.7702703,14.5584166 17.7702703,14.2499491 C17.7702703,13.6850945 17.5153379,13.1501276 17.0717603,12.7833345 C15.47437,11.4563444 13.9962036,9.58401586 13.9962036,4.90949546 C13.9962036,2.20231961 11.7034377,-1.54543045e-13 8.88536731,-1.54543045e-13 C6.06683254,-1.54543045e-13 3.77383452,2.20231961 3.77383452,4.90949546 C3.77383452,9.58825366 2.29624852,11.4586863 0.697465172,12.7846728 C0.254235807,13.1554806 0,13.6895554 0,14.2499491 C0,14.5584166 0.260272456,14.8085586 0.581375763,14.8085586 L17.1887784,14.8085586 Z" id="Fill-1"></path>
            </g>
        </g>
    </g>
</svg>