<svg xmlns="http://www.w3.org/2000/svg" xmlns:xlink="http://www.w3.org/1999/xlink" width="18" height="17" viewBox="0 0 18 17">
    <defs>
        <path id="331gschufa" d="M17 0c2.761 0 5 2.239 5 5v10c0 2.761-2.239 5-5 5H5c-2.761 0-5-2.239-5-5V5c0-2.761 2.239-5 5-5h12zm-2.692 1.176h-.076c-1.95 0-3.53 1.58-3.53 3.53 0 1.95 1.58 3.53 3.53 3.53h.076c1.95 0 3.53-1.58 3.53-3.53 0-1.95-1.58-3.53-3.53-3.53z"/>
    </defs>
    <g fill="none" fill-rule="evenodd">
        <g>
            <g>
                <g transform="translate(-327 -298) translate(0 283) translate(325 13)">
                    <mask id="8egbih937b" fill="#fff">
                        <use xlink:href="#331gschufa"/>
                    </mask>
                    <g stroke="#444" stroke-width="1.2" mask="url(#8egbih937b)">
                        <g>
                            <path d="M8.043 14.932c1.824 0 3.304-1.116 3.304-2.493-2.337.052-1.48 0-3.304 0-1.825 0-.96.025-3.304 0 0 1.377 1.479 2.493 3.304 2.493zM15.279 12.34c.285 0 .517-.208.517-.465 0-.47-.227-.917-.621-1.222-1.42-1.106-2.734-2.666-2.734-6.562C12.441 1.835 10.403 0 7.898 0 5.393 0 3.355 1.835 3.355 4.091c0 3.9-1.314 5.458-2.735 6.563-.394.309-.62.754-.62 1.221 0 .257.231.465.517.465h14.762z" transform="translate(3 3)"/>
                        </g>
                    </g>
                    <rect width="5" height="5" x="12" y="2" fill="#E75149" rx="2.5"/>
                </g>
            </g>
        </g>
    </g>
</svg>
