<?xml version="1.0" encoding="UTF-8"?>
<svg width="41px" height="36px" viewBox="0 0 41 36" version="1.1" xmlns="http://www.w3.org/2000/svg" xmlns:xlink="http://www.w3.org/1999/xlink">
    <!-- Generator: Sketch 52.5 (67469) - http://www.bohemiancoding.com/sketch -->
    <title>Group 14 Copy 3</title>
    <desc>Created with Sketch.</desc>
    <g id="Page-1" stroke="none" stroke-width="1" fill="none" fill-rule="evenodd">
        <g id="PC_03_판매리포트" transform="translate(-475.000000, -513.000000)" fill="#C3CBD6">
            <g id="Group-14-Copy-3" transform="translate(495.675714, 531.388515) rotate(70.000000) translate(-495.675714, -531.388515) translate(479.675714, 509.888515)">
                <path d="M15.5626948,0.0631444888 L15.5626948,6.73393102 C10.7536917,6.73393102 6.8552244,10.577359 6.8552244,15.3184678 C6.8552244,20.0595765 10.7536917,23.9030045 15.5626948,23.9030045 L15.5626948,30.5737911 C7.01675934,30.5737911 0.088909805,23.7437502 0.088909805,15.3184678 C0.088909805,6.89318537 7.01675934,0.0631444888 15.5626948,0.0631444888 Z M15.5484581,42.7298112 L15.5484581,36.0590246 C20.3574612,36.0590246 24.2559285,32.2155966 24.2559285,27.4744879 C24.2559285,22.7333791 20.3574612,18.8899511 15.5484581,18.8899511 L15.5484581,12.2191646 C24.0943936,12.2191646 31.0222431,19.0492055 31.0222431,27.4744879 C31.0222431,35.8997703 24.0943936,42.7298112 15.5484581,42.7298112 Z" id="Shape"></path>
            </g>
        </g>
    </g>
</svg>