<svg width="24" height="24" viewBox="0 0 24 24" fill="none" xmlns="http://www.w3.org/2000/svg">
<path fill-rule="evenodd" clip-rule="evenodd" d="M12 0C5.38298 0 0 5.38298 0 12C0 18.617 5.38298 24 12 24C18.617 24 24 18.617 24 12C24 5.38298 18.617 0 12 0Z" fill="#333333"/>
<path fill-rule="evenodd" clip-rule="evenodd" d="M18.082 9.45702L11.582 15.9571C11.3869 16.1517 11.1308 16.2499 10.8751 16.2499C10.6189 16.2499 10.3632 16.1517 10.1682 15.9571L6.91811 12.7071C6.52713 12.3161 6.52713 11.6842 6.91811 11.2932C7.3091 10.9018 7.94095 10.9018 8.33193 11.2932L10.8751 13.8359L16.6682 8.0432C17.0592 7.65178 17.6911 7.65178 18.082 8.0432C18.473 8.43418 18.473 9.06603 18.082 9.45702Z" fill="#FBFBFB"/>
</svg>
