<svg width="80" height="80" viewBox="0 0 80 80" fill="none" xmlns="http://www.w3.org/2000/svg">
<rect x="0.5" y="0.5" width="79" height="79" rx="3.5" fill="white" stroke="#CAD2DC"/>
<path d="M20.602 51.315H19.549V53.408C19.549 55.527 18.223 57.763 16.546 58.621L17.183 59.479C18.496 58.777 19.575 57.321 20.082 55.618C20.615 57.217 21.668 58.582 22.903 59.245L23.566 58.4C21.928 57.581 20.602 55.462 20.602 53.408V51.315ZM27.583 55.033H25.659V50.314H24.593V61.962H25.659V55.917H27.583V55.033ZM37.816 50.314H36.75V58.842H37.816V50.314ZM35.372 56.333C33.656 55.761 32.447 54.344 32.447 52.771V52.134H35.086V51.276H28.69V52.134H31.355V52.771C31.355 54.435 30.172 55.956 28.404 56.567L28.963 57.399C30.341 56.905 31.42 55.852 31.914 54.526C32.447 55.748 33.513 56.71 34.852 57.178L35.372 56.333ZM31.381 60.831V58.036H30.315V61.702H38.167V60.831H31.381ZM40.86 56.463C42.667 56.19 44.344 55.293 45.085 54.032C45.826 55.293 47.49 56.19 49.297 56.463L49.674 55.605C47.594 55.319 45.618 54.032 45.618 52.602H49.336V51.744H45.618V50.314H44.552V51.744H40.834V52.602H44.539C44.539 54.045 42.576 55.319 40.47 55.605L40.86 56.463ZM50.363 57.347H39.82V58.218H44.552V61.975H45.618V58.218H50.363V57.347ZM51.99 51.549V52.433H56.267C56.02 55.189 54.421 57.425 51.444 58.92L52.029 59.752C55.799 57.867 57.32 54.864 57.32 51.549H51.99ZM62.208 55.033H60.336V50.301H59.27V61.962H60.336V55.917H62.208V55.033Z" fill="#999999"/>
<mask id="mask0" mask-type="alpha" maskUnits="userSpaceOnUse" x="23" y="16" width="28" height="23">
<path fill-rule="evenodd" clip-rule="evenodd" d="M50.8046 16H23V38.4971H50.8046V16Z" fill="white"/>
</mask>
<g mask="url(#mask0)">
<path fill-rule="evenodd" clip-rule="evenodd" d="M42.5075 21.0498C42.1841 21.0498 41.9058 20.829 41.8322 20.5124L41.5993 19.5056C41.3042 18.2555 40.2033 17.3843 38.9149 17.3843H34.8909C33.6027 17.3843 32.5016 18.2555 32.2064 19.5056L31.9736 20.5124C31.8999 20.8234 31.622 21.0498 31.2983 21.0498H26.2301C25.2142 21.0498 24.3912 21.8699 24.3912 22.8825V35.1126C24.3912 36.2158 25.2878 37.1093 26.3947 37.1093H47.4112C48.5181 37.1093 49.4145 36.2158 49.4145 35.1126V22.8825C49.4145 21.8699 48.592 21.0498 47.5758 21.0498H42.5075ZM50.8046 22.8843V35.1143C50.8046 36.9809 49.2835 38.4971 47.4106 38.4971H26.3883C24.5155 38.4971 22.9943 36.9809 22.9943 35.1143V22.8843C22.9943 21.1079 24.4415 19.6655 26.2237 19.6655H30.7415L30.8493 19.196C31.2862 17.3122 32.9493 16 34.8903 16H38.9143C40.8498 16 42.5127 17.3122 42.9552 19.196L43.0632 19.6655H47.5752C49.3574 19.6655 50.8046 21.1138 50.8046 22.8843Z" fill="#CAD2DC"/>
</g>
<path fill-rule="evenodd" clip-rule="evenodd" d="M45.1688 24.0088C45.1688 24.5211 45.5856 24.9361 46.0996 24.9361C46.6136 24.9361 47.0305 24.5211 47.0305 24.0088C47.0305 23.4964 46.6136 23.081 46.0996 23.081C45.5856 23.081 45.1688 23.4964 45.1688 24.0088Z" fill="#CAD2DC"/>
<path fill-rule="evenodd" clip-rule="evenodd" d="M36.8991 24.6816C34.4474 24.6816 32.4495 26.6729 32.4495 29.1165C32.4495 31.56 34.4474 33.5513 36.8991 33.5513C39.351 33.5513 41.3487 31.56 41.3487 29.1165C41.3487 26.6729 39.351 24.6816 36.8991 24.6816ZM36.9011 34.9397C33.6831 34.9397 31.0608 32.3261 31.0608 29.1188C31.0608 25.9113 33.6831 23.2979 36.9011 23.2979C40.119 23.2979 42.7413 25.9055 42.7413 29.1188C42.7413 32.3319 40.119 34.9397 36.9011 34.9397Z" fill="#CAD2DC"/>
<path d="M49.7581 43.2333C53.7577 43.2333 57 40.0526 57 36.1289C57 32.2053 53.7577 29.0246 49.7581 29.0246C45.7585 29.0246 42.5162 32.2053 42.5162 36.1289C42.5162 40.0526 45.7585 43.2333 49.7581 43.2333Z" fill="#CAD2DC"/>
<path d="M49.8728 32.6329V39.85" stroke="white" stroke-width="0.84354" stroke-miterlimit="10"/>
<path d="M53.5513 36.2415H46.1944" stroke="white" stroke-width="0.84354" stroke-miterlimit="10"/>
</svg>
