<svg width="30" height="26" viewBox="0 0 30 26" fill="none" xmlns="http://www.w3.org/2000/svg">
<path fill-rule="evenodd" clip-rule="evenodd" d="M24.2153 22.4244L23.8791 21.4254C23.874 21.4106 23.8678 21.3961 23.8606 21.3821H23.8609L23.5759 20.8171C23.2849 20.2412 22.7257 19.8448 22.0817 19.7577C21.3616 19.6609 19.9926 19.4686 18.9135 19.2692C18.8001 19.2484 18.6903 19.2273 18.5843 19.2063C18.3471 19.1594 18.0275 19.0547 17.6342 18.8951C17.1728 18.7078 16.6101 18.4445 15.9616 18.1126C15.5925 17.9238 15.1869 17.7078 14.7558 17.4705C14.3524 17.2487 13.9231 17.0055 13.4797 16.7478C13.1345 16.5469 12.8711 16.3894 12.7389 16.3098L11.7402 13.8367C11.5021 13.2527 10.885 12.9124 10.2585 13.0196L5.36893 13.8745C5.34056 13.8777 5.31271 13.8845 5.28608 13.8946C5.09663 13.9674 5.0592 14.1085 4.91979 14.6336C4.83257 14.9622 4.72687 15.3964 4.62217 15.8564C4.55843 16.1361 4.49243 16.4376 4.42592 16.7531C4.31487 17.2863 4.22547 17.7611 4.1603 18.1637C4.11892 18.4176 4.08766 18.6424 4.06754 18.8317C3.92469 20.161 4.05048 21.7027 4.06565 21.8784V23.2381C4.06389 23.9524 4.63265 24.5403 5.35317 24.5688C7.4562 24.6565 12.6875 24.8605 15.8296 24.8605C19.9424 24.8605 22.7145 23.4874 24.0467 22.8275C24.1963 22.7534 24.2682 22.5816 24.2153 22.4244V22.4244Z" stroke="#979797"/>
<path fill-rule="evenodd" clip-rule="evenodd" d="M4.01728 3.43612L4.3534 4.43503C4.35853 4.4499 4.36474 4.46438 4.37197 4.47836H4.37163L4.65661 5.04342C4.94767 5.61923 5.50682 6.01565 6.15089 6.10281C6.87093 6.19962 8.23997 6.39183 9.31902 6.59124C9.43246 6.61205 9.54228 6.63319 9.6482 6.65417C9.88545 6.70112 10.2051 6.8058 10.5983 6.96542C11.0597 7.15271 11.6224 7.41593 12.271 7.7479C12.6401 7.93665 13.0457 8.15267 13.4768 8.38995C13.8801 8.6118 14.3095 8.85499 14.7528 9.11267C15.0981 9.31354 15.3614 9.47107 15.4936 9.55065L16.4924 12.0238C16.7304 12.6078 17.3475 12.9481 17.974 12.8408L22.8636 11.986C22.892 11.9828 22.9198 11.976 22.9465 11.9658C23.1359 11.8931 23.1733 11.7519 23.3127 11.2268C23.4 10.8983 23.5057 10.464 23.6104 10.0041C23.6741 9.72442 23.7401 9.42292 23.8066 9.10734C23.9177 8.57417 24.0071 8.09939 24.0722 7.69675C24.1136 7.44286 24.1449 7.2181 24.165 7.02876C24.3079 5.6995 24.1821 4.15775 24.1669 3.98207V2.62242C24.1686 1.90806 23.5999 1.3202 22.8794 1.29165C20.7763 1.20395 15.5451 1.00001 12.4029 1.00001C8.29017 1.00001 5.51807 2.3731 4.18584 3.03301C4.03624 3.10711 3.96439 3.27892 4.01728 3.43612V3.43612Z" stroke="#979797"/>
</svg>
