<svg width="72" height="51" viewBox="0 0 72 51" fill="none" xmlns="http://www.w3.org/2000/svg">
<path d="M16.9637 29.9348C16.8288 29.9348 16.8288 30.1609 16.8288 30.1609C16.8288 30.1609 16.4783 33.1249 15.2918 34.2553C15.2918 34.2553 14.7795 34.9084 14.4559 34.2051C14.1323 33.5268 14.0784 32.497 14.1323 31.6178C14.1323 31.6178 15.3457 30.3618 15.3727 28.9551C15.3997 27.5485 14.6446 26.7195 13.6469 26.2422C13.6469 26.2422 13.3503 26.0664 13.3233 26.5437C13.2964 27.0209 12.6222 29.0305 13.0267 32.5974C13.0267 32.5974 12.2987 34.3055 11.8672 34.3307C11.4088 34.3809 10.7347 31.4168 12.4065 29.5078C12.4065 29.5078 12.7301 29.2314 12.4874 28.8044C12.2447 28.3774 11.4627 27.0963 11.4627 27.0963C11.4627 27.0963 11.0582 26.7446 10.9504 27.1717C10.8425 27.5736 9.27852 30.6381 8.84708 31.8439C8.84708 31.8439 8.55046 27.7494 9.62907 24.7853C9.62907 24.7853 9.92569 24.3834 9.60211 23.9815C9.25156 23.5545 8.19991 22.4995 8.19991 22.4995C8.19991 22.4995 7.76846 22.3236 7.87632 22.7004C7.98418 23.0772 8.33473 27.5233 7.6606 31.0903C7.6606 31.0903 6.71681 34.3307 5.93481 34.3055C5.93481 34.3055 5.3955 34.6321 5.61122 28.9551C5.61122 28.9551 5.58426 28.6035 6.1775 28.5532C6.7977 28.4779 7.47184 28.4527 7.47184 28.4527L7.4988 28.0508H5.82695C5.82695 28.0508 5.82695 26.82 5.90784 26.5186C5.98874 26.192 5.82695 26.0664 5.82695 26.0664L4.91012 25.0616C4.91012 25.0616 4.28992 24.7853 4.34385 25.2375C4.42474 25.6645 4.53261 25.4384 4.53261 25.9408C4.53261 26.4432 4.53261 28.0508 4.53261 28.0508L1.7282 28.076C1.7282 28.076 1.48551 28.0508 1.37765 28.302C1.26979 28.5783 1.00013 28.9803 1.00013 28.9803C1.00013 28.9803 0.919238 29.4073 1.37765 29.1812C1.8091 28.9551 1.94392 28.7793 2.64503 28.7542C3.34613 28.7291 4.58654 28.7291 4.58654 28.7291L4.53261 33.6524C4.53261 33.6524 4.64047 35.5615 5.58426 35.4862C5.58426 35.4862 6.20446 35.8378 7.52577 32.7733C7.52577 32.7733 7.76846 32.6226 7.76846 32.9742C7.76846 33.3008 7.68756 35.4108 8.2808 35.3857C8.2808 35.3857 9.00887 34.7326 9.00887 34.1548C9.00887 33.5771 9.683 31.1908 10.5459 30.3869C10.5459 30.3869 9.97962 35.235 11.4088 35.3103C11.4088 35.3103 11.9481 35.4862 12.8919 33.7027C12.8919 33.7027 13.0267 33.4766 13.1885 33.7027C13.3233 33.9288 13.62 35.1596 14.5638 35.1094C15.5615 35.034 16.9906 33.0245 17.1794 30.1106C17.1794 30.1106 17.0985 29.9348 16.9637 29.9348ZM14.3211 27.9252C14.8334 27.8248 14.9143 29.5329 14.1862 30.814C14.1862 30.814 13.8087 28.0257 14.3211 27.9252Z" fill="black"/>
<path d="M28.9365 26.1921C28.8286 25.7902 28.7207 25.7651 28.8286 25.3381C28.9095 25.0115 28.8016 24.7101 28.8556 24.3584C28.9365 23.8058 28.7747 23.2532 28.8016 22.7005C28.8016 22.374 28.7747 22.0726 28.7747 21.7963C28.7747 21.4195 28.7747 21.0176 28.7477 20.6408C28.3163 20.5152 28.8825 19.9374 28.9365 19.7616C28.9904 19.5104 28.8016 19.1587 28.7207 18.8824C28.6668 18.581 28.7747 18.38 28.8016 18.0535C28.8016 17.6767 28.6398 17.2497 28.7207 16.9231C28.7747 16.7473 28.8825 16.697 28.8825 16.4961C28.8825 16.3705 28.7747 16.2951 28.7747 16.1695C28.7747 15.8932 28.8556 15.6169 28.8556 15.3155C28.8556 15.1648 28.8556 15.014 28.8016 14.8884C28.8016 14.788 28.6668 14.788 28.6668 14.6875C28.6668 14.6121 28.7477 14.6121 28.7747 14.5619C28.8016 14.3861 28.8825 14.3107 28.8825 14.1349C28.8825 13.9842 28.8286 13.8334 28.8286 13.6827C28.8286 13.2808 29.1792 12.2007 28.2893 12.477L27.9657 12.7282C27.6961 13.1552 27.4803 13.4818 27.1298 13.8837C26.9141 14.1349 26.968 14.2353 27.0219 14.5619C27.0759 14.9387 27.0489 14.9638 26.7253 15.0894C26.4556 15.1899 26.1321 15.3657 26.6174 15.4662C26.8062 15.4913 26.995 15.3657 27.0759 15.5667C27.2107 15.7927 26.968 15.7676 26.8332 15.7927C26.5365 15.8681 26.3478 15.843 26.1321 16.1444C25.9433 16.4458 26.1051 16.5966 26.213 16.898C26.3478 17.2999 26.1051 17.6516 26.159 18.0535C26.2399 18.4303 26.3208 18.7317 26.2939 19.1336C26.2669 20.0881 26.186 21.0929 26.2939 21.9972C26.4017 22.8764 26.0781 23.7304 26.0781 24.6096C26.0781 25.4637 25.7815 26.3177 25.6197 27.1467C25.5119 27.5988 25.404 28.0258 25.2422 28.478C25.1074 28.8548 24.9725 29.2316 24.8108 29.6335C24.649 30.0605 24.649 30.3368 24.3254 30.6885C24.0288 31.0402 23.867 31.3165 23.3007 31.2662C23.2198 31.1155 23.0041 31.0402 22.8423 30.9648C22.4378 30.8141 22.4648 30.8392 22.4378 30.4373C22.4108 30.161 22.3839 29.734 21.9794 29.7591C21.7637 29.4325 22.0872 29.2316 22.0333 28.905C21.9524 28.6287 21.6558 28.5031 21.6019 28.1766C21.5749 28.0258 21.6288 27.85 21.6019 27.6993C21.5749 27.5235 21.494 27.4732 21.4131 27.2974C21.2513 26.8955 21.2783 26.5689 21.3322 26.167C21.3322 26.0163 21.4131 25.7902 21.4131 25.6646C21.4131 25.4888 21.3052 25.4637 21.2513 25.2878C21.0356 24.8608 21.4401 24.5845 21.3052 24.2077C21.2513 24.0821 21.0895 23.9565 21.0356 23.8309C20.9817 23.6802 20.9547 23.5295 21.0086 23.3788C21.0895 23.0773 21.2513 22.8513 21.1974 22.4996C21.1165 22.1228 21.0626 22.0223 21.1435 21.6707C21.2513 21.319 21.0356 21.118 21.0356 20.7915C21.0356 20.5654 21.2244 20.3645 21.2513 20.1384C21.3322 19.435 21.2513 18.7819 21.4401 18.1288C21.521 17.8023 21.3052 17.6013 21.3322 17.2748C21.3592 17.0236 21.521 16.8226 21.6019 16.5966C21.7367 16.1193 21.6558 15.6169 21.8715 15.1396C22.0063 14.8131 21.9794 14.1851 22.2221 13.959L22.1681 13.5822L22.276 13.2557C22.4917 13.0296 22.4108 12.7031 22.4917 12.4016C22.5996 11.9997 22.7074 11.5978 22.8692 11.221C23.1389 10.593 23.3816 9.86459 23.7861 9.31196C24.1366 8.80957 24.3254 8.10623 24.8647 7.75456C25.2422 7.50337 25.5928 7.32754 25.8894 7.70433C26.0781 7.98064 26.0781 8.28207 25.7815 8.4579C25.7815 8.4579 25.5658 8.93517 25.8624 8.78446C26.5635 8.4579 26.8062 7.65409 26.995 7.0261C27.0759 6.74979 27.2107 6.29764 27.0489 6.02133C26.8332 5.61942 26.2939 5.74502 25.9163 5.87062C24.9995 6.373 24.3523 7.22706 23.813 8.25695C23.6512 8.55838 23.2737 9.11101 23.085 9.38732C22.8423 9.71387 22.7614 10.0153 22.5457 10.367C22.3569 10.6935 22.1412 11.0703 22.0333 11.422C21.8985 11.849 21.6288 12.1756 21.4401 12.7533C21.1974 13.4566 21.0356 13.3059 20.8199 14.2102C20.685 14.8382 20.1457 15.4662 20.1188 16.1193C20.0918 16.6217 19.7143 16.697 19.5795 17.4255C19.4986 17.8023 19.3368 18.2293 19.3368 18.5559C19.3368 18.6312 19.4177 18.6815 19.3907 18.7819C19.3637 18.8573 19.2559 18.8071 19.2289 18.8824C19.148 19.0331 19.148 19.0582 19.0941 19.2843C19.0941 19.4099 19.0671 19.6862 18.9323 19.6862V20.1133C18.7435 20.6156 18.7975 21.2687 18.6087 21.746C18.5278 22.0474 18.5008 22.1982 18.5548 22.4745C18.6357 22.801 18.5008 22.801 18.4469 23.1276C18.2851 23.7053 18.2582 24.4589 18.2582 25.1874C18.2582 25.7651 18.339 26.5689 18.1773 27.1215C18.1233 27.3225 18.1503 27.4481 18.1773 27.6993C18.1773 27.9254 18.2042 28.1263 18.2312 28.3524C18.2582 28.6036 18.2312 28.8297 18.2851 29.0557C18.339 29.2316 18.5008 29.4576 18.339 29.5832L18.4199 30.0605C18.6087 31.216 18.8514 32.899 19.4446 34.0545C19.6873 34.5569 19.903 35.1346 20.4693 35.4109C20.9277 35.637 21.7097 35.5867 21.9794 35.1095C21.7637 35.1095 21.2783 35.21 21.0626 35.1095C20.8468 35.009 20.4424 34.5066 20.3075 34.3559C19.8221 33.7782 19.4986 33.2255 19.3907 32.4971C19.2828 31.8691 19.0941 31.216 18.9593 30.5629C18.9323 30.4373 18.7435 29.6335 19.121 29.7591C19.2559 29.8093 19.3368 30.3619 19.3637 30.5126C19.7682 31.6179 19.903 32.9241 20.712 33.8535C21.0895 34.2805 21.6558 34.8583 22.2221 34.6322C22.7614 34.4313 23.2468 33.8033 23.5164 33.3763C23.84 32.899 24.1097 32.3212 24.5141 31.8942C25.0804 31.3416 25.7006 30.6131 26.1051 29.96C26.186 29.7842 26.5635 29.106 26.5905 29.734C26.5905 29.9349 26.4017 29.9851 26.3478 30.1359C26.2939 30.3368 26.4556 30.3619 26.5096 30.5378C26.5905 30.8392 26.4826 30.7638 26.3747 31.0402C26.3208 31.216 26.3748 31.1155 26.4017 31.3416C26.4556 31.7435 26.3747 32.1203 26.4556 32.5222C26.4826 32.698 26.4556 32.8236 26.4556 32.9743C26.4287 33.1502 26.3478 33.2507 26.2939 33.4014C26.2399 33.7028 26.4556 33.9038 26.3208 34.2554V34.582C26.159 34.9085 26.4556 35.1346 26.4287 35.4863C26.4287 35.6119 26.2939 35.7626 26.2939 35.9133C26.2669 36.0891 26.3748 36.1896 26.4017 36.3403C26.4287 36.6669 26.213 36.8427 26.2669 37.1441C26.2939 37.2697 26.4017 37.32 26.4017 37.4958C26.4017 37.6465 26.2669 37.7972 26.2669 37.9731C26.213 38.375 26.2939 38.7769 26.4017 39.1286C26.5096 39.4802 26.2669 39.6561 26.3208 40.0831C26.3478 40.2338 26.4556 40.3845 26.4826 40.5353C26.5096 40.7613 26.4287 40.8116 26.4017 41.0125C26.4017 41.1381 26.4826 41.2888 26.4826 41.3893C26.4826 41.5651 26.3747 41.7159 26.3747 41.8917C26.3747 42.0926 26.5635 42.1429 26.5096 42.3438C26.4826 42.4694 26.2669 42.5197 26.2669 42.7206C26.2669 42.8965 26.4826 42.9969 26.5096 43.1728C26.5365 43.3988 26.3208 43.5496 26.2939 43.8008C26.2669 43.9515 26.3478 44.1022 26.3208 44.2278C26.2939 44.4036 26.186 44.5041 26.186 44.7051C26.186 45.0567 26.4826 45.3582 26.4287 45.7349C26.3748 46.0866 25.9972 46.388 26.1051 46.7648C26.1321 46.8653 26.2669 46.9909 26.2939 47.0663C26.3208 47.2672 26.213 47.3175 26.159 47.4682C25.9972 48.0459 26.0512 48.7744 26.0242 49.4024C26.0242 49.5531 26.1051 49.8796 26.1051 50.0303C26.2399 49.8796 26.2939 49.5531 26.4287 49.1763C26.5096 48.9753 26.6444 48.9502 26.6714 48.7493C26.7792 48.2218 26.6714 47.6691 26.7792 47.1667C26.9141 46.589 26.941 45.9359 26.968 45.333C26.968 44.8809 26.968 44.2529 27.2107 43.8259C27.4803 44.1524 27.3994 44.9814 27.2646 45.333C27.1028 45.7098 27.2376 46.7648 27.3725 47.016C27.6691 47.6691 27.6961 45.7601 27.6961 45.534C27.6961 45.2577 27.9387 43.9264 28.1814 43.9264C28.2893 44.479 28.1545 45.0567 28.1814 45.6596C28.6398 45.6345 28.7747 43.424 28.8016 43.0472C28.9365 41.7159 28.6668 40.4599 28.9095 39.1537V38.6262C28.9365 38.6262 28.7747 37.9982 28.8016 37.8224C28.8286 37.5209 28.9634 37.2446 28.9365 36.893C28.9095 36.4659 28.6129 36.2399 28.7477 35.8379C28.8825 35.436 28.9365 35.2602 28.8556 34.8332C28.8016 34.4815 28.9634 34.0796 28.8556 33.753C28.8016 33.6023 28.6668 33.527 28.6668 33.3511C28.6668 33.1753 28.8016 33.1251 28.8825 32.9743C28.9904 32.7483 28.9365 32.3715 28.9365 32.1203C28.9095 31.7937 28.7207 31.6681 28.8286 31.3416C28.9095 31.0653 28.9365 30.8643 28.9365 30.5629C28.9365 30.3871 28.9365 30.2363 28.9095 30.0605C28.8825 29.96 28.7747 29.7591 28.7747 29.6837C28.7747 29.533 28.9095 29.4828 28.9634 29.3572C28.9904 29.2064 28.9634 29.106 28.9634 28.9553C28.9634 28.6789 28.9365 28.4277 28.9365 28.1514V27.9756C28.9634 27.9756 28.9095 27.7746 28.9634 27.7244C28.9634 27.5988 28.9904 27.6239 28.9904 27.4732C28.9904 27.2974 28.8016 27.0964 28.8016 26.9708C28.6938 26.6443 29.0443 26.5438 28.9365 26.1921ZM18.6626 28.8799C18.5278 28.3524 18.8244 28.0761 18.8244 28.0761C18.8244 28.0761 18.8784 28.1766 18.9593 28.3775C19.0401 28.6036 18.7705 29.2818 18.6626 28.8799ZM26.7523 17.4004C26.5905 17.2497 26.5635 16.7473 26.6983 16.5714C26.7792 16.5714 26.9141 16.5463 26.995 16.5714V16.8729C27.0219 17.0738 27.1028 17.8023 26.7523 17.4004Z" fill="black"/>
<path d="M26.5923 14.362C26.5923 14.362 26.5109 14.1597 26.4023 14.2103C26.4023 14.2103 26.2665 14.362 26.3208 14.4378C26.4023 14.4884 26.5923 14.362 26.5923 14.362Z" fill="black"/>
<path d="M26.2939 14.9636C26.4017 15.0389 26.6714 14.8883 26.6714 14.8883C26.6714 14.8883 26.5635 14.6373 26.4287 14.6624C26.4287 14.6624 26.186 14.8883 26.2939 14.9636Z" fill="black"/>
<path d="M72.0001 26.2678C72.0001 26.2678 71.8383 26.0417 71.7304 26.4436C71.6225 26.8707 69.3574 32.9747 68.4137 32.9747C67.4699 32.9747 67.7665 28.1518 69.0069 25.6901C70.2473 23.2535 68.5755 21.7212 67.6856 20.5406C67.6856 20.5406 67.335 20.1136 67.0115 20.3145C66.6609 20.4904 66.607 20.8169 66.6609 21.0681C66.7418 21.2942 66.7418 21.7463 66.2295 22.8767C65.7171 23.9568 65.016 25.4389 64.3688 27.3731C63.7217 29.3072 63.8565 30.1613 63.479 31.0656C63.1284 31.995 62.5352 33.477 61.6453 33.4268C61.6453 33.4268 60.8903 32.4723 61.7532 28.8049C61.7532 28.8049 62.3195 26.519 63.2093 25.1626C63.2093 25.1626 63.7217 24.5848 63.4251 23.7308C63.1284 22.8767 62.6431 22.0226 61.8341 20.8672C61.8341 20.8672 61.5375 20.5406 61.133 20.6662C60.7285 20.7918 60.7285 21.3444 60.7285 21.3444C60.7285 21.3444 60.9173 24.4843 60.2162 27.5489C59.5151 30.6386 58.787 34.0297 57.6545 34.0297C56.5219 34.0297 57.3578 27.9006 58.2207 27.1219C59.1106 26.3432 58.2207 24.3839 58.005 24.0071C57.7893 23.6303 57.3848 23.58 57.1691 23.9317C56.9533 24.3085 55.9556 26.3683 55.2815 26.1924C55.2815 26.1924 54.9579 26.1171 55.3624 24.8109C55.7669 23.5047 56.3331 18.4557 54.6883 18.3552C53.286 18.2799 52.6119 23.5549 53.3669 26.3432C53.3669 26.3432 53.8523 27.3731 53.5287 28.8551C53.1782 30.3623 51.9917 34.5321 50.7513 34.4316C49.5109 34.3311 49.3761 30.1864 49.4839 29.3575C49.4839 29.3575 50.0772 29.056 50.9401 26.5441C51.8299 24.0322 52.3153 22.7762 49.9154 19.7117C49.9154 19.7117 49.5918 19.1842 49.1064 19.3349C48.648 19.5107 48.8907 20.1638 48.8637 20.4652C48.8098 20.7667 47.0031 25.3886 47.8121 31.4424C47.8121 31.4424 46.6795 33.7785 46.1402 33.7534C45.6009 33.7282 45.4391 31.9448 45.3852 30.94C45.3043 29.9352 45.0077 24.0573 45.5739 19.6614C45.5739 19.6614 48.2165 15.0144 49.43 5.36854C49.43 5.36854 49.9423 3.03245 48.5941 1.50017C48.5941 1.50017 48.2974 1.37457 48.0278 0.746591C47.7851 0.143728 47.057 -0.132585 46.7065 0.369801C46.3829 0.922426 43.3358 4.71544 43.3358 28.2271C43.3358 28.2271 42.365 33.7534 40.828 33.7534C39.318 33.7534 39.8303 22.9772 40.1269 19.4605C40.1269 19.4605 43.2549 12.6029 43.9021 4.31353C43.9021 4.31353 44.0639 2.90685 43.147 1.8016C43.147 1.8016 42.7965 1.55041 42.4729 0.897307C42.1224 0.244205 41.7179 0.143728 41.4213 0.118608C41.1246 0.0934889 40.9359 0.294443 40.2617 1.97744C39.5606 3.63531 37.5922 13.4318 37.9427 27.2223C37.9427 27.2223 36.8371 32.3718 35.7046 32.3718C34.572 32.3718 34.9226 27.147 36.0282 24.409C36.0282 24.409 36.4866 23.5549 35.9203 23.0023C35.9203 23.0023 34.1945 21.2439 33.035 20.3648C33.035 20.3648 32.28 19.988 32.3878 20.8672C32.4957 21.7463 32.5766 24.0071 31.3362 26.7702C30.0958 29.5584 30.1767 35.2856 31.444 35.4364C31.444 35.4364 32.1721 35.9136 33.6282 32.2964C33.6282 32.2964 34.2754 35.5368 35.2462 35.4364C36.19 35.3359 37.7809 31.4675 37.8888 30.8395C37.8888 30.8395 38.7247 35.6373 40.2348 35.6373C41.7448 35.6373 43.3628 31.3921 43.3628 31.3921C43.3628 31.3921 44.1448 35.6373 45.6279 35.6373C47.111 35.6373 48.1357 32.8239 48.1357 32.8239C48.1357 32.8239 48.9716 35.6122 50.6704 35.562C52.3423 35.5368 53.5018 32.9244 54.4995 28.4029C54.4995 28.4029 54.4725 27.8503 55.7129 27.9257C55.7129 27.9257 54.6883 35.5871 57.3309 35.6122C57.3309 35.6122 58.0859 35.8634 59.7038 32.8993C59.7038 32.8993 60.0004 35.5871 61.0521 35.5871C61.0521 35.5871 61.5914 35.8131 63.2363 33.1756C63.2363 33.1756 63.452 35.6122 64.4497 35.6373C65.4475 35.6624 66.6339 32.7988 66.6339 32.7988C66.6339 32.7988 67.0115 35.6373 67.9822 35.6122C68.953 35.5368 71.6225 30.3371 72.0001 26.2678ZM50.4277 22.5753C51.3715 22.4999 50.4277 26.9711 49.5648 27.7247C49.5648 27.6996 49.4839 22.6506 50.4277 22.5753ZM48.0278 4.6652C48.0278 4.6652 48.4323 3.83627 48.4862 4.71544C48.5671 5.59462 47.8121 11.0706 46.0593 16.0694C46.0593 16.0694 45.7897 11.4977 48.0278 4.6652ZM42.2302 4.71544C42.2302 4.71544 42.7695 3.45948 42.8235 4.9164C42.9044 6.3482 41.61 13.7584 40.3966 16.0945C40.4235 16.0694 40.1539 12 42.2302 4.71544ZM32.7654 31.568C32.226 32.3216 32.28 31.3921 32.28 31.3921C32.1991 26.9209 34.0058 25.3133 34.0058 25.3133C34.3563 29.1063 33.3047 30.7893 32.7654 31.568ZM65.3666 32.8742C64.7733 33.7534 64.6385 32.8239 64.6385 32.8239C64.5576 28.5537 67.0384 25.891 67.0384 25.891C67.4699 27.8001 65.9598 31.9699 65.3666 32.8742Z" fill="black"/>
<path d="M64.8274 17.8024C65.0701 16.8478 65.6634 15.6672 64.7465 14.4364C63.8567 13.2055 63.1556 12.452 62.6702 12.6529C62.1848 12.879 62.1848 14.8885 63.8028 17.5512C63.8028 17.5512 64.6117 18.7569 64.8274 17.8024Z" fill="black"/>
</svg>
