<svg width="28" height="26" viewBox="0 0 28 26" fill="none" xmlns="http://www.w3.org/2000/svg">
<g clip-path="url(#clip0)">
<path d="M17.9193 9.73847L22.1189 9.67986C22.7547 9.67149 23.8506 10.3246 24.2187 10.8354L26.3687 13.8248C27.0128 14.7291 27.3893 15.8847 27.3893 16.9984V20.3729C27.3893 21.0093 26.8706 21.5285 26.2348 21.5285H25.5823C25.0385 19.6026 23.265 18.1874 21.1652 18.1874C19.0654 18.1874 17.2919 19.6026 16.7481 21.5285H11.2518C10.7081 19.6026 8.93453 18.1874 6.83474 18.1874C4.73495 18.1874 2.96142 19.6026 2.41765 21.5285H1.75676C1.12097 21.5285 0.602295 21.0093 0.602295 20.3729V13.7662C0.602295 14.4026 1.12097 14.9217 1.75676 14.9217H16.7648C17.4006 14.9217 17.9193 14.4026 17.9193 13.7662V9.73847Z" stroke="black" stroke-width="1.44" stroke-miterlimit="22.9256" stroke-linecap="round" stroke-linejoin="round"/>
<path d="M21.1652 20.6493C22.4786 20.6493 23.5327 21.7127 23.5327 23.019C23.5327 24.3336 22.4703 25.3887 21.1652 25.3887C19.8518 25.3887 18.7977 24.3253 18.7977 23.019C18.7977 21.7127 19.8602 20.6493 21.1652 20.6493Z" stroke="black" stroke-width="1.44" stroke-miterlimit="22.9256" stroke-linecap="round" stroke-linejoin="round"/>
<path d="M6.83483 20.6493C8.14824 20.6493 9.20232 21.7127 9.20232 23.019C9.20232 24.3336 8.13988 25.3887 6.83483 25.3887C5.52141 25.3887 4.46733 24.3253 4.46733 23.019C4.45897 21.7127 5.52141 20.6493 6.83483 20.6493Z" stroke="black" stroke-width="1.44" stroke-miterlimit="22.9256" stroke-linecap="round" stroke-linejoin="round"/>
<path d="M1.75676 0.602905H16.7648C17.4006 0.602905 17.9193 1.12207 17.9193 1.75846V13.6406C17.9193 14.277 17.4006 14.7961 16.7648 14.7961H1.75676C1.12097 14.7961 0.602295 14.277 0.602295 13.6406V1.75846C0.602295 1.12207 1.12097 0.602905 1.75676 0.602905Z" stroke="black" stroke-width="1.44" stroke-miterlimit="22.9256" stroke-linecap="round" stroke-linejoin="round"/>
</g>
<defs>
<clipPath id="clip0">
<rect width="28" height="26" fill="white"/>
</clipPath>
</defs>
</svg>
