<svg width="27" height="24" viewBox="0 0 27 24" fill="none" xmlns="http://www.w3.org/2000/svg">
<g clip-path="url(#clip0)">
<path d="M11.7929 18.8198C13.0595 18.8198 14.0822 19.8495 14.0822 21.1248C14.0822 22.4 13.0595 23.4297 11.7929 23.4297C10.5263 23.4297 9.50354 22.4 9.50354 21.1248C9.50354 19.8574 10.5263 18.8198 11.7929 18.8198Z" stroke="black" stroke-width="1.44" stroke-miterlimit="22.9256" stroke-linecap="round" stroke-linejoin="round"/>
<path d="M20.5961 18.8198C21.8627 18.8198 22.8854 19.8495 22.8854 21.1248C22.8854 22.4 21.8627 23.4297 20.5961 23.4297C19.3295 23.4297 18.3068 22.4 18.3068 21.1248C18.3068 19.8574 19.3374 18.8198 20.5961 18.8198Z" stroke="black" stroke-width="1.44" stroke-miterlimit="22.9256" stroke-linecap="round" stroke-linejoin="round"/>
<path d="M0.566406 0.570282H5.21588L9.53494 14.7564H23.9633" stroke="black" stroke-width="1.44" stroke-miterlimit="22.9256" stroke-linecap="round" stroke-linejoin="round"/>
<path d="M8.7168 11.0258H25.4817" stroke="black" stroke-width="1.44" stroke-miterlimit="22.9256" stroke-linecap="round" stroke-linejoin="round"/>
<path d="M7.60754 7.29504H26.4336" stroke="black" stroke-width="1.44" stroke-miterlimit="22.9256" stroke-linecap="round" stroke-linejoin="round"/>
</g>
<defs>
<clipPath id="clip0">
<rect width="27" height="24" fill="white"/>
</clipPath>
</defs>
</svg>
