<svg width="26" height="26" viewBox="0 0 26 26" fill="none" xmlns="http://www.w3.org/2000/svg">
<path d="M13.0036 1.51938C6.66278 1.51938 1.51941 6.07844 1.51941 11.6979C1.51941 17.3174 6.66278 21.8765 13.0036 21.8765C14.266 21.8765 15.4851 21.6961 16.6249 21.3571C17.9162 22.5618 19.5825 23.6366 21.6745 24.4806L20.982 19.0126C23.1389 17.1587 24.4878 14.569 24.4878 11.6907C24.4806 6.07844 19.3445 1.51938 13.0036 1.51938Z" stroke="black" stroke-width="1.44" stroke-miterlimit="22.9256" stroke-linecap="round" stroke-linejoin="round"/>
<path d="M10.111 9.31739C10.111 6.44633 15.3625 6.41026 15.413 9.21639C15.4491 11.3805 12.9171 10.9333 12.9171 13.5518" stroke="black" stroke-width="1.44" stroke-miterlimit="22.9256" stroke-linecap="round" stroke-linejoin="round"/>
<path d="M12.9242 16.7475C12.9747 16.7475 13.018 16.7475 13.0685 16.7475" stroke="black" stroke-width="1.44" stroke-miterlimit="22.9256" stroke-linecap="round" stroke-linejoin="round"/>
</svg>
