<svg width="80" height="30" viewBox="0 0 80 30" fill="none" xmlns="http://www.w3.org/2000/svg">
<rect x="0.5" y="0.5" width="79" height="29" rx="1.5" fill="#FDFDFD" stroke="#7E7E7E"/>
<path d="M29.488 14.631C27.746 14.059 26.745 12.629 26.745 11.121V9.86H25.393V11.017C25.393 12.707 24.392 14.306 22.546 14.943L23.261 16.009C24.613 15.515 25.575 14.501 26.095 13.227C26.589 14.332 27.525 15.229 28.786 15.684L29.488 14.631ZM28.045 19.948C26.407 19.948 25.458 19.545 25.458 18.791C25.458 18.063 26.407 17.647 28.045 17.647C29.683 17.647 30.632 18.063 30.632 18.791C30.632 19.545 29.683 19.948 28.045 19.948ZM28.045 16.594C25.627 16.594 24.132 17.413 24.132 18.791C24.132 20.182 25.627 21.001 28.045 21.001C30.476 21.001 31.958 20.182 31.958 18.791C31.958 17.413 30.476 16.594 28.045 16.594ZM31.828 12.161V9.249H30.489V16.308H31.828V13.266H33.492V12.161H31.828ZM40.865 12.837H38.161V10.679H40.865V12.837ZM36.822 12.837H35.223V13.916H43.79V12.837H42.204V10.679H43.855V9.6H35.158V10.679H36.822V12.837ZM42.23 19.792H36.809V18.193H42.23V19.792ZM44.83 15.931V14.852H34.209V15.931H38.85V17.127H35.483V20.858H43.543V17.127H40.189V15.931H44.83ZM46.86 15.554C48.784 15.294 50.318 14.436 51.072 13.266C51.839 14.436 53.373 15.307 55.284 15.554L55.765 14.501C53.49 14.228 51.878 12.98 51.761 11.732H55.388V10.653H51.748V9.262H50.409V10.653H46.782V11.732H50.396C50.279 12.993 48.667 14.228 46.392 14.501L46.86 15.554ZM56.389 16.321H45.781V17.426H50.409V21.027H51.748V17.426H56.389V16.321ZM57.912 10.497V11.589H62.02C61.747 14.293 60.2 16.36 57.327 17.829L58.068 18.856C61.903 16.919 63.359 13.903 63.359 10.497H57.912ZM68.208 13.89H66.427V9.249H65.088V20.988H66.427V15.008H68.208V13.89Z" fill="#777777"/>
<line x1="10" y1="15.5" x2="17" y2="15.5" stroke="#777777"/>
<path d="M13.5 18.9999L13.5412 12" stroke="#777777"/>
</svg>
