<svg width="58" height="30" viewBox="0 0 58 30" fill="none" xmlns="http://www.w3.org/2000/svg">
<rect x="0.5" y="0.5" width="57" height="29" rx="1.5" fill="#FDFDFD" stroke="#7E7E7E"/>
<path d="M29.54 14.644C27.785 14.059 26.784 12.642 26.784 11.134V9.873H25.432V11.017C25.432 12.681 24.431 14.189 22.585 14.813L23.261 15.879C24.639 15.411 25.601 14.436 26.121 13.201C26.615 14.345 27.564 15.255 28.864 15.684L29.54 14.644ZM24.106 17.985H30.489V21.001H31.828V16.906H24.106V17.985ZM33.492 12.265H31.828V9.275H30.489V16.36H31.828V13.37H33.492V12.265ZM37.784 11.641H39.721V10.536H34.417V11.641H36.484V12.486C36.484 14.579 35.704 16.698 34.04 17.738L34.846 18.726C35.977 18.011 36.731 16.75 37.147 15.268C37.563 16.633 38.291 17.79 39.396 18.44L40.176 17.465C38.538 16.516 37.784 14.488 37.784 12.486V11.641ZM40.592 13.383H38.863V14.475H40.592V20.429H41.853V9.483H40.592V13.383ZM42.958 9.249V20.988H44.232V9.249H42.958Z" fill="#777777"/>
<line x1="10" y1="15.5" x2="17" y2="15.5" stroke="#777777"/>
</svg>
