<svg width="16" height="16" viewBox="0 0 16 16" fill="none" xmlns="http://www.w3.org/2000/svg">
<circle cx="8" cy="8" r="8" fill="#E24C4B"/>
<path d="M16 8.00002C16 12.4 12.4 16 7.99997 16C5.44998 16 3.19999 14.85 1.74997 13C3.09997 14.1 4.84997 14.75 6.74995 14.75C11.15 14.75 14.75 11.1501 14.75 6.75004C14.75 4.85006 14.1 3.10006 12.9999 1.75006C14.85 3.20001 16 5.45 16 8.00002Z" fill="#D1403F"/>
<path d="M11.65 11.65C11.35 11.9499 10.85 11.9499 10.55 11.65L8 9.09998L5.45002 11.65C5.15003 11.9499 4.65 11.9499 4.35001 11.65C4.05003 11.35 4.05003 10.8499 4.35001 10.55L6.9 7.99998L4.35001 5.44999C4.05003 5.15 4.05003 4.64998 4.35001 4.34999C4.65 4.05 5.15003 4.05 5.45002 4.34999L8 6.89997L10.55 4.34999C10.85 4.05 11.35 4.05 11.65 4.34999C11.95 4.64998 11.95 5.15 11.65 5.44999L9.1 7.99998L11.65 10.55C11.95 10.8499 11.95 11.3499 11.65 11.65Z" fill="white"/>
</svg>
