<svg width="173" height="30" viewBox="0 0 173 30" fill="none" xmlns="http://www.w3.org/2000/svg">
<path d="M152.5 2.44531L150.673 4.27634L157.499 11.1067L150.673 17.9371L152.5 19.7642L161.161 11.1067L152.5 2.44531Z" fill="#111C4E"/>
<path d="M171.051 19.7642L172.882 17.9371L166.052 11.1067L172.882 4.27634L171.051 2.44531L162.394 11.1067L171.051 19.7642Z" fill="#111C4E"/>
<path d="M170.437 1.83102L168.606 0L161.776 6.83038L154.945 0L153.118 1.83102L161.776 10.4885L170.437 1.83102Z" fill="#EA0029"/>
<path d="M153.118 20.3823L154.945 22.2095L161.776 15.383L168.606 22.2095L170.437 20.3823L161.776 11.7209L153.118 20.3823Z" fill="#EA0029"/>
<path d="M2.91175 9.40454L4.2063 13.016C4.63781 14.229 5.06933 15.4691 5.28703 16.7364H5.34145L6.06842 13.9335L7.49514 9.40454H10.2475L6.49994 19.4071L10.2475 29.7324H7.49514L6.25502 26.1753C5.7963 24.8536 5.31035 23.5318 5.15097 22.1323H5.09265C5.06544 22.9409 4.82441 23.7223 4.5795 24.4765L2.90787 29.7324H0L3.85642 19.4071L0.241026 9.40454H2.91175Z" fill="#111C4E"/>
<path d="M27.8968 9.40405L29.1914 13.0156C29.6229 14.2285 30.0544 15.4686 30.2721 16.7359H30.3227L31.0496 13.933L32.4763 9.40405H35.2287L31.4811 19.4066L35.2287 29.7319H32.4763L31.2362 26.1748C30.7775 24.8531 30.2916 23.5313 30.1322 22.1318H30.0777C30.0505 22.9404 29.8095 23.7218 29.5646 24.476L27.893 29.7319H24.9812L28.8376 19.4066L25.2261 9.40405H27.8968Z" fill="#111C4E"/>
<path d="M52.3066 29.7318V9.40393H55.6771C59.3431 9.40393 60.3694 11.4254 60.3694 14.8503C60.3694 16.8446 59.9651 18.7884 57.8075 19.3521V19.4065C60.1283 20.1335 60.6648 21.914 60.6648 24.1765C60.6648 27.9241 59.2886 29.7318 55.5411 29.7318H52.3066ZM55.3234 11.6937H54.8646V18.353C57.3721 18.4619 57.722 16.8991 57.722 14.7415C57.722 13.1515 57.1816 11.6665 55.3234 11.6937ZM54.8646 27.4381C57.2088 27.547 57.8036 26.3341 57.8036 24.0949C57.8036 21.8557 57.3449 20.4562 54.8646 20.5106V27.4381Z" fill="#111C4E"/>
<path d="M79.7407 9.40393V27.3837H84.2696V29.7279H77.0466V9.40393H79.7407Z" fill="#111C4E"/>
<path d="M102.141 9.40393V24.3126C102.141 26.9289 102.922 27.4654 104.026 27.4654C105.884 27.4654 106.048 26.2797 106.075 24.608V9.40393H108.769V23.8266C108.769 26.4974 108.796 30 104.104 30C99.8158 30 99.4426 27.0883 99.4426 23.4223V9.40393H102.141Z" fill="#111C4E"/>
<path d="M132.759 9.40393V11.7481H128.203V18.1353H132.273V20.4795H128.203V27.3798H132.759V29.724H125.509V9.40393H132.759Z" fill="#111C4E"/>
<path d="M140.196 9.40466V9.7973H139.687V12.8062H139.236V9.7973H138.703V9.40466H140.196Z" fill="#111C4E"/>
<path d="M142.303 9.40391L142.785 11.8608H142.793L142.804 11.7209L142.94 10.9045L143.236 9.40391H143.632L143.947 12.8055H143.504L143.423 11.5382L143.395 10.9045L143.388 10.4574H143.38L143.302 10.9434L142.948 12.8016H142.637L142.198 10.4535H142.19L142.058 12.8016H141.63L141.91 9.40002H142.303V9.40391Z" fill="#111C4E"/>
</svg>
